<?xml version="1.0" encoding="UTF-8" standalone="no"?>
<svg
   width="24"
   height="24"
   viewBox="0 0 24 24"
   fill="none"
   stroke="currentColor"
   stroke-width="2"
   stroke-linecap="round"
   stroke-linejoin="round"
   class="feather feather-github"
   version="1.1"
   id="svg4"
   sodipodi:docname="github.svg"
   inkscape:version="1.1.1 (3bf5ae0d25, 2021-09-20)"
   xmlns:inkscape="http://www.inkscape.org/namespaces/inkscape"
   xmlns:sodipodi="http://sodipodi.sourceforge.net/DTD/sodipodi-0.dtd"
   xmlns="http://www.w3.org/2000/svg"
   xmlns:svg="http://www.w3.org/2000/svg">
  <defs
     id="defs8" />
  <sodipodi:namedview
     id="namedview6"
     pagecolor="#ffffff"
     bordercolor="#666666"
     borderopacity="1.0"
     inkscape:pageshadow="2"
     inkscape:pageopacity="0.0"
     inkscape:pagecheckerboard="0"
     showgrid="false"
     inkscape:zoom="16.708333"
     inkscape:cx="24.329177"
     inkscape:cy="-5.7755611"
     inkscape:window-width="1920"
     inkscape:window-height="991"
     inkscape:window-x="-9"
     inkscape:window-y="-9"
     inkscape:window-maximized="1"
     inkscape:current-layer="svg4" />
  <path
     id="path33"
     style="fill:#5c6fff;fill-opacity:1;fill-rule:evenodd;stroke:none;stroke-width:0.192858"
     d="m 12.053291,0.59203543 c -6.3460003,0 -11.49158588,5.28390957 -11.49158588,11.80270757 0,5.214567 3.29297468,9.638676 7.85908058,11.199332 0.5743316,0.109258 0.7847165,-0.25632 0.7847165,-0.56807 0,-0.28125 -0.010367,-1.210625 -0.01532,-2.19686 C 5.9931089,21.543119 5.3176659,19.436249 5.3176659,19.436249 4.7949072,18.072213 4.0427144,17.709571 4.0427144,17.709572 c -1.0426642,-0.732542 0.078302,-0.71731 0.078302,-0.71731 1.1539906,0.08327 1.7617822,1.216377 1.7617822,1.216377 1.024966,1.804186 2.6873492,1.28206 3.3431299,0.980483 C 9.3292626,18.426482 9.6275233,17.90642 9.9561751,17.611683 7.403655,17.313429 4.7201926,16.301015 4.7201926,11.77853 c 0,-1.288397 0.4478969,-2.3411615 1.1830324,-3.1677145 C 5.7839056,8.3135384 5.3913805,7.1121686 6.0155705,5.4864279 c 0,0 0.9651004,-0.3170836 3.1609943,1.2099579 0.9166852,-0.2615104 1.9000962,-0.3916749 2.8767262,-0.3963654 0.976628,0.00469 1.96003,0.134855 2.878429,0.3963654 2.193421,-1.5270415 3.157591,-1.2099579 3.157591,-1.2099579 0.625521,1.6257407 0.231665,2.8271104 0.112344,3.1243876 0.736849,0.826553 1.183033,1.8793175 1.183033,3.1677145 0,4.533432 -2.688907,5.531328 -5.247897,5.823525 0.412193,0.36627 0.779609,1.084469 0.779609,2.185627 0,1.579224 -0.01363,2.849576 -0.01363,3.238323 0,0.31429 0.207307,0.68217 0.789822,0.566465 4.563818,-1.562417 7.852272,-5.98472 7.852272,-11.197727 0,-6.518798 -5.144826,-11.80270757 -11.491586,-11.80270757 z" />
</svg>
