<svg id="svg" version="1.1" xmlns="http://www.w3.org/2000/svg" xmlns:xlink="http://www.w3.org/1999/xlink" width="64" height="64" viewBox="0, 0, 400,400"><g id="svgg"><path id="path0" d="M158.800 1.800 C 158.800 3.126,158.957 3.600,159.395 3.600 C 159.906 3.600,160.004 5.423,160.095 16.700 L 160.200 29.800 175.100 29.905 L 190.000 30.010 190.000 45.000 L 190.000 59.990 175.100 60.095 L 160.200 60.200 160.000 75.000 L 159.800 89.800 144.905 89.905 L 130.010 90.010 129.905 104.905 L 129.800 119.800 115.000 120.000 L 100.200 120.200 100.097 148.500 C 100.041 164.065,100.095 176.800,100.219 176.800 C 100.429 176.800,123.773 167.421,126.800 166.120 C 130.352 164.594,130.000 165.559,130.000 157.332 L 130.000 150.000 145.000 150.000 L 160.000 150.000 160.000 160.024 L 160.000 170.048 161.832 174.522 C 162.840 176.983,163.850 179.220,164.077 179.493 C 164.385 179.864,167.665 180.015,177.144 180.094 L 189.800 180.200 189.916 183.500 C 190.050 187.289,190.072 187.304,193.288 185.836 C 194.450 185.305,197.740 183.942,200.600 182.806 C 203.460 181.671,206.313 180.489,206.940 180.181 C 209.964 178.696,210.493 178.885,211.683 181.877 C 214.299 188.452,218.844 199.482,219.301 200.362 C 219.716 201.161,219.834 199.537,220.000 190.762 L 220.200 180.200 250.000 180.200 L 279.800 180.200 279.905 195.100 L 280.010 210.000 295.000 210.000 L 309.990 210.000 310.095 224.900 L 310.200 239.800 325.000 239.800 L 339.800 239.800 339.800 225.000 L 339.800 210.200 324.895 210.095 L 309.990 209.990 310.095 195.095 L 310.200 180.200 325.000 180.000 L 339.800 179.800 339.905 164.900 L 340.010 150.000 355.000 150.000 L 369.990 150.000 370.095 164.900 L 370.200 179.800 384.565 179.905 C 394.354 179.977,399.101 180.152,399.465 180.454 C 399.911 180.824,400.000 175.754,400.000 150.049 L 400.000 119.200 391.880 119.200 C 386.861 119.200,383.603 119.357,383.349 119.611 C 383.094 119.866,380.541 119.979,376.569 119.911 L 370.200 119.800 370.094 107.721 C 370.012 98.388,370.103 95.535,370.494 95.172 C 370.827 94.862,370.956 93.861,370.870 92.250 L 370.741 89.800 355.375 89.942 L 340.010 90.085 339.905 75.142 L 339.800 60.200 324.900 60.095 L 310.000 59.990 310.000 47.251 C 310.000 40.244,310.114 33.677,310.254 32.656 L 310.509 30.800 325.612 30.800 C 339.014 30.800,340.742 30.729,340.957 30.167 C 341.091 29.819,341.200 22.889,341.200 14.767 L 341.200 0.000 325.000 0.000 L 308.800 0.000 308.800 14.561 L 308.800 29.123 306.700 29.399 C 305.545 29.551,299.110 29.793,292.400 29.938 L 280.200 30.200 280.000 45.000 L 279.800 59.800 250.000 59.800 L 220.200 59.800 220.000 45.000 L 219.800 30.200 204.900 30.095 L 190.000 29.990 190.000 14.995 L 190.000 0.000 174.400 0.000 L 158.800 0.000 158.800 1.800 M219.905 104.900 L 219.800 119.800 204.900 119.905 L 190.000 120.010 190.000 105.005 L 190.000 90.000 205.005 90.000 L 220.010 90.000 219.905 104.900 M310.000 105.005 L 310.000 120.010 295.100 119.905 L 280.200 119.800 280.095 104.900 L 279.990 90.000 294.995 90.000 L 310.000 90.000 310.000 105.005 M184.400 236.377 C 184.070 236.559,183.350 236.890,182.800 237.114 C 182.250 237.337,180.947 237.898,179.904 238.360 C 178.862 238.822,177.827 239.200,177.604 239.200 C 177.382 239.200,177.200 239.380,177.200 239.600 C 177.200 239.847,179.267 240.000,182.600 240.000 C 185.859 240.000,188.000 239.845,188.000 239.608 C 188.000 237.180,186.077 235.454,184.400 236.377 " stroke="none" fill="#eb54ab" fill-rule="evenodd"></path><path id="path1" d="M152.180 155.939 C 151.971 156.125,150.270 156.873,148.400 157.600 C 146.530 158.327,144.829 159.075,144.620 159.261 C 144.411 159.448,144.011 159.600,143.732 159.600 C 143.452 159.600,142.251 160.045,141.061 160.589 C 139.872 161.133,134.975 163.120,130.180 165.003 C 125.385 166.887,120.818 168.710,120.031 169.055 C 119.244 169.400,118.195 169.843,117.700 170.041 C 117.205 170.238,116.395 170.562,115.900 170.759 C 115.405 170.957,114.370 171.391,113.600 171.724 C 112.830 172.057,109.770 173.318,106.800 174.526 C 96.130 178.867,82.583 184.414,81.700 184.803 C 80.568 185.302,78.841 186.015,77.800 186.413 C 77.360 186.581,76.370 186.992,75.600 187.326 C 74.830 187.661,72.310 188.684,70.000 189.600 C 67.690 190.516,65.260 191.499,64.600 191.785 C 63.940 192.071,62.770 192.578,62.000 192.913 C 61.230 193.247,56.280 195.265,51.000 197.398 C 45.720 199.531,40.770 201.547,40.000 201.879 C 39.230 202.210,38.150 202.664,37.600 202.887 C 37.050 203.111,36.287 203.452,35.905 203.647 C 35.523 203.841,34.938 204.000,34.605 204.000 C 33.633 204.000,33.954 205.546,35.812 209.800 C 36.100 210.460,36.905 212.440,37.600 214.200 C 38.295 215.960,39.138 218.030,39.473 218.800 C 40.126 220.303,40.669 221.605,41.307 223.200 C 41.527 223.750,41.862 224.560,42.050 225.000 C 46.124 234.495,49.852 244.423,49.462 244.741 C 49.208 244.948,44.680 246.864,39.400 248.999 C 34.120 251.133,29.170 253.150,28.400 253.481 C 26.189 254.430,23.950 255.344,22.200 256.013 C 21.760 256.181,20.770 256.593,20.000 256.928 C 19.230 257.263,17.610 257.926,16.400 258.400 C 13.900 259.380,11.681 260.322,10.800 260.776 C 10.092 261.142,9.765 262.398,10.286 262.752 C 10.627 262.984,13.959 270.882,18.829 283.000 C 19.979 285.860,20.894 288.605,20.864 289.100 C 20.834 289.595,20.987 290.000,21.204 290.000 C 21.422 290.000,21.600 290.360,21.600 290.800 C 21.600 291.240,21.780 291.600,22.000 291.600 C 22.220 291.600,22.400 291.960,22.400 292.400 C 22.400 292.840,22.580 293.200,22.800 293.200 C 23.020 293.200,23.200 293.560,23.200 294.000 C 23.200 294.440,23.380 294.800,23.600 294.800 C 23.820 294.800,24.000 295.081,24.000 295.424 C 24.000 295.793,23.812 295.931,23.538 295.762 C 23.259 295.589,23.185 295.652,23.351 295.921 C 23.502 296.165,23.890 296.264,24.213 296.140 C 24.615 295.986,24.800 296.181,24.800 296.757 C 24.800 297.221,24.980 297.600,25.200 297.600 C 25.420 297.600,25.600 297.870,25.600 298.200 C 25.600 298.530,25.735 298.801,25.900 298.803 C 26.509 298.809,27.205 300.913,26.771 301.435 C 26.451 301.820,26.561 301.883,27.240 301.705 C 27.993 301.508,28.092 301.603,27.901 302.337 C 27.755 302.894,27.859 303.200,28.195 303.200 C 28.763 303.200,29.374 304.305,29.246 305.100 C 29.201 305.375,29.439 305.600,29.775 305.600 C 30.110 305.600,30.508 306.095,30.659 306.700 C 30.809 307.305,31.218 308.019,31.566 308.287 C 31.915 308.555,32.058 308.780,31.884 308.787 C 31.711 308.794,31.936 309.194,32.384 309.675 C 32.833 310.157,33.200 310.787,33.200 311.075 C 33.200 311.364,33.350 311.600,33.532 311.600 C 33.715 311.600,34.119 312.095,34.430 312.700 C 34.740 313.305,35.311 314.091,35.697 314.447 C 36.084 314.803,36.400 315.298,36.400 315.547 C 36.400 315.796,36.580 316.000,36.800 316.000 C 37.020 316.000,37.200 316.230,37.200 316.512 C 37.200 316.793,37.560 317.283,38.000 317.600 C 38.440 317.917,38.800 318.407,38.800 318.688 C 38.800 318.970,38.980 319.200,39.200 319.200 C 39.420 319.200,39.600 319.398,39.600 319.640 C 39.600 319.881,40.161 320.603,40.846 321.243 C 41.701 322.042,42.026 322.657,41.883 323.204 C 41.768 323.644,41.842 323.898,42.048 323.770 C 42.454 323.520,44.800 325.832,44.800 326.482 C 44.800 326.701,45.700 327.761,46.800 328.838 C 48.749 330.746,49.236 331.600,48.376 331.600 C 48.143 331.600,48.070 331.790,48.213 332.021 C 48.356 332.253,48.676 332.375,48.924 332.292 C 49.173 332.209,53.641 336.430,58.854 341.671 C 64.067 346.912,68.445 351.200,68.583 351.200 C 68.878 351.200,69.450 351.667,71.645 353.700 C 72.536 354.525,73.425 355.200,73.619 355.200 C 73.814 355.200,74.603 355.830,75.373 356.600 C 76.143 357.370,76.977 358.000,77.226 358.000 C 77.475 358.000,78.183 358.540,78.800 359.200 C 79.417 359.860,80.119 360.400,80.360 360.400 C 80.602 360.400,80.800 360.580,80.800 360.800 C 80.800 361.020,81.030 361.200,81.312 361.200 C 81.593 361.200,82.083 361.560,82.400 362.000 C 82.717 362.440,83.192 362.800,83.455 362.800 C 83.718 362.800,83.993 362.945,84.067 363.123 C 84.240 363.544,87.841 366.000,88.284 366.000 C 88.471 366.000,88.883 366.360,89.200 366.800 C 89.517 367.240,90.007 367.600,90.288 367.600 C 90.570 367.600,90.800 367.770,90.800 367.978 C 90.800 368.186,92.055 367.736,93.589 366.978 C 95.123 366.220,96.642 365.600,96.965 365.600 C 97.288 365.600,97.664 365.420,97.800 365.200 C 98.489 364.085,99.266 365.181,101.200 370.000 C 102.348 372.860,103.466 375.200,103.686 375.200 C 103.906 375.200,103.984 375.464,103.860 375.787 C 103.736 376.110,103.835 376.498,104.079 376.649 C 104.348 376.815,104.411 376.741,104.238 376.462 C 104.069 376.188,104.207 376.000,104.576 376.000 C 104.919 376.000,105.200 376.180,105.200 376.400 C 105.200 376.620,105.560 376.800,106.000 376.800 C 106.440 376.800,106.800 376.980,106.800 377.200 C 106.800 377.420,107.160 377.600,107.600 377.600 C 108.040 377.600,108.400 377.780,108.400 378.000 C 108.400 378.220,108.760 378.400,109.200 378.400 C 109.640 378.400,110.000 378.580,110.000 378.800 C 110.000 379.020,110.360 379.200,110.800 379.200 C 111.240 379.200,111.600 379.380,111.600 379.600 C 111.600 379.820,111.960 380.000,112.400 380.000 C 112.840 380.000,113.200 380.180,113.200 380.400 C 113.200 380.620,113.560 380.800,114.000 380.800 C 114.440 380.800,114.800 380.980,114.800 381.200 C 114.800 381.420,115.160 381.600,115.600 381.600 C 116.040 381.600,116.400 381.780,116.400 382.000 C 116.400 382.220,116.760 382.400,117.200 382.400 C 117.640 382.400,118.000 382.580,118.000 382.800 C 118.000 383.020,118.450 383.200,119.000 383.200 C 119.550 383.200,120.000 383.380,120.000 383.600 C 120.000 383.820,120.360 384.000,120.800 384.000 C 121.240 384.000,121.600 384.180,121.600 384.400 C 121.600 384.620,122.061 384.800,122.624 384.800 C 123.204 384.800,123.540 384.973,123.400 385.200 C 123.256 385.433,123.663 385.600,124.376 385.600 C 125.049 385.600,125.600 385.792,125.600 386.027 C 125.600 386.272,125.941 386.346,126.402 386.199 C 126.937 386.029,127.285 386.156,127.447 386.580 C 127.581 386.929,127.896 387.190,128.146 387.160 C 129.160 387.038,129.632 387.224,129.374 387.643 C 129.183 387.951,129.481 388.002,130.350 387.811 C 131.367 387.588,131.600 387.663,131.600 388.215 C 131.600 388.696,131.832 388.833,132.400 388.684 C 132.839 388.569,133.300 388.638,133.423 388.838 C 133.546 389.037,134.177 389.200,134.824 389.200 C 135.534 389.200,136.000 389.410,136.000 389.731 C 136.000 390.093,136.381 390.206,137.200 390.085 C 137.920 389.980,138.400 390.087,138.400 390.355 C 138.400 390.600,138.940 390.800,139.600 390.800 C 140.260 390.800,140.800 390.980,140.800 391.200 C 140.800 391.420,141.430 391.600,142.200 391.600 C 142.970 391.600,143.600 391.780,143.600 392.000 C 143.600 392.615,145.910 392.474,147.540 391.759 C 148.343 391.407,149.360 390.975,149.800 390.800 C 150.240 390.625,151.250 390.197,152.044 389.849 C 152.838 389.501,153.858 389.077,154.310 388.908 C 155.121 388.605,152.874 382.120,149.181 374.104 C 148.752 373.172,148.400 372.173,148.400 371.884 C 148.400 371.596,148.247 371.189,148.059 370.980 C 147.872 370.771,147.047 368.890,146.225 366.800 C 145.404 364.710,144.459 362.370,144.125 361.600 C 143.225 359.524,142.289 357.238,141.587 355.400 C 141.419 354.960,141.010 353.970,140.679 353.200 C 138.792 348.816,138.813 348.912,139.565 348.232 C 139.949 347.884,140.476 347.600,140.736 347.600 C 140.996 347.600,142.062 347.222,143.104 346.760 C 144.147 346.298,145.405 345.758,145.900 345.560 C 146.395 345.362,147.205 345.038,147.700 344.841 C 148.195 344.643,149.230 344.207,150.000 343.872 C 150.770 343.537,152.390 342.874,153.600 342.400 C 154.810 341.926,156.430 341.263,157.200 340.928 C 157.970 340.593,159.050 340.133,159.600 339.906 C 160.150 339.679,160.960 339.339,161.400 339.150 C 171.305 334.908,179.027 332.060,179.433 332.500 C 179.687 332.775,181.197 336.240,182.788 340.200 C 184.380 344.160,185.952 348.030,186.282 348.800 C 186.612 349.570,187.019 350.560,187.187 351.000 C 187.355 351.440,187.721 352.340,188.000 353.000 C 188.279 353.660,188.645 354.560,188.813 355.000 C 188.981 355.440,189.392 356.430,189.727 357.200 C 190.062 357.970,190.905 360.040,191.600 361.800 C 192.295 363.560,193.102 365.540,193.392 366.200 C 193.682 366.860,194.337 368.360,194.846 369.533 C 195.984 372.152,195.597 372.190,204.200 368.621 C 207.720 367.161,213.300 364.879,216.600 363.550 C 219.900 362.221,223.230 360.860,224.000 360.526 C 224.770 360.192,225.760 359.781,226.200 359.613 C 226.640 359.445,227.495 359.103,228.100 358.854 C 228.705 358.604,229.605 358.235,230.100 358.033 C 233.442 356.672,235.200 355.815,235.200 355.548 C 235.200 355.275,229.287 340.457,227.719 336.800 C 227.098 335.352,226.650 334.250,226.054 332.700 C 225.603 331.530,225.027 330.137,224.276 328.400 C 223.943 327.630,222.680 324.524,221.469 321.499 L 219.268 315.998 220.123 315.399 C 220.593 315.069,221.120 314.800,221.293 314.800 C 221.467 314.800,222.462 314.422,223.504 313.960 C 224.547 313.498,225.760 312.977,226.200 312.801 C 226.640 312.625,227.630 312.208,228.400 311.873 C 229.170 311.538,231.240 310.695,233.000 310.000 C 234.760 309.305,236.830 308.462,237.600 308.127 C 238.370 307.792,239.360 307.381,239.800 307.213 C 240.240 307.045,241.050 306.704,241.600 306.456 C 253.199 301.228,260.400 298.969,260.400 300.558 C 260.400 300.844,260.655 301.600,260.966 302.239 C 261.277 302.877,263.275 307.720,265.406 313.000 C 267.537 318.280,269.550 323.230,269.881 324.000 C 270.211 324.770,270.619 325.760,270.787 326.200 C 271.491 328.042,272.427 330.329,273.326 332.400 C 273.659 333.170,274.413 335.006,275.001 336.480 L 276.069 339.161 278.034 338.387 C 281.242 337.122,298.883 329.970,300.400 329.319 C 301.170 328.989,302.160 328.581,302.600 328.413 C 303.605 328.029,305.078 327.440,306.500 326.854 C 307.105 326.604,308.005 326.238,308.500 326.041 C 308.995 325.843,310.030 325.408,310.800 325.074 C 311.570 324.739,312.965 324.161,313.900 323.789 C 314.835 323.417,315.600 322.990,315.600 322.839 C 315.600 322.572,312.530 314.790,311.324 312.000 C 310.571 310.260,309.996 308.868,309.546 307.700 C 308.936 306.114,308.496 305.034,307.877 303.600 C 307.545 302.830,305.348 297.430,302.996 291.600 C 300.644 285.770,298.449 280.370,298.119 279.600 C 297.789 278.830,297.357 277.795,297.159 277.300 C 296.962 276.805,296.638 275.995,296.441 275.500 C 296.243 275.005,295.808 273.970,295.474 273.200 C 295.140 272.430,293.936 269.460,292.800 266.600 C 291.664 263.740,290.479 260.815,290.167 260.100 C 288.773 256.904,288.336 255.846,285.993 250.000 C 284.626 246.590,283.383 243.664,283.232 243.498 C 283.021 243.267,269.064 248.662,263.300 251.203 C 262.805 251.421,261.995 251.762,261.500 251.959 C 261.005 252.157,259.970 252.592,259.200 252.927 C 258.430 253.262,256.360 254.105,254.600 254.800 C 252.840 255.495,250.770 256.338,250.000 256.673 C 249.230 257.008,248.150 257.464,247.600 257.687 C 247.050 257.911,246.324 258.229,245.987 258.396 C 245.650 258.562,244.821 258.820,244.146 258.968 L 242.918 259.238 238.420 248.119 C 235.946 242.003,233.648 236.370,233.314 235.600 C 232.979 234.830,232.471 233.660,232.185 233.000 C 231.899 232.340,230.916 229.910,230.000 227.600 C 229.084 225.290,228.061 222.770,227.726 222.000 C 227.392 221.230,226.957 220.195,226.759 219.700 C 226.562 219.205,226.196 218.305,225.946 217.700 C 225.697 217.095,225.355 216.240,225.187 215.800 C 225.019 215.360,224.596 214.348,224.246 213.551 C 223.897 212.754,222.244 208.614,220.574 204.351 C 218.903 200.088,217.301 196.060,217.015 195.400 C 216.728 194.740,216.140 193.390,215.708 192.400 C 215.276 191.410,213.950 188.128,212.761 185.107 C 211.573 182.087,210.413 179.542,210.184 179.452 C 209.843 179.319,203.379 181.717,200.200 183.156 C 198.232 184.047,196.375 184.825,193.400 186.003 C 191.640 186.701,189.465 187.606,188.568 188.015 C 187.670 188.424,185.960 189.142,184.768 189.610 C 183.575 190.079,181.970 190.737,181.200 191.072 C 179.537 191.796,178.098 192.393,177.000 192.814 C 176.560 192.982,175.300 193.521,174.200 194.011 C 173.100 194.501,171.665 194.923,171.010 194.951 L 169.820 195.000 165.142 183.400 C 162.570 177.020,160.187 171.170,159.848 170.400 C 159.510 169.630,158.144 166.331,156.814 163.069 C 153.570 155.115,153.399 154.852,152.180 155.939 M187.082 236.500 C 188.174 238.857,189.330 241.477,189.597 242.200 C 189.944 243.139,190.485 244.457,191.320 246.400 C 191.651 247.170,193.847 252.570,196.200 258.400 C 198.553 264.230,200.749 269.630,201.080 270.400 C 201.411 271.170,201.864 272.250,202.087 272.800 C 202.311 273.350,202.672 274.144,202.891 274.565 C 203.304 275.362,202.041 276.771,200.895 276.791 C 200.617 276.796,200.077 276.978,199.695 277.196 C 199.313 277.413,196.930 278.412,194.400 279.416 C 191.870 280.419,189.037 281.591,188.104 282.020 C 187.172 282.449,186.254 282.800,186.066 282.800 C 185.877 282.800,185.200 283.057,184.561 283.371 C 183.923 283.685,181.060 284.870,178.200 286.004 C 175.340 287.138,172.370 288.340,171.600 288.674 C 169.975 289.379,168.608 289.947,167.200 290.500 C 166.650 290.716,165.924 291.029,165.587 291.196 C 165.250 291.362,164.440 291.615,163.787 291.758 C 162.521 292.036,162.693 292.249,161.166 288.500 C 160.965 288.005,160.644 287.195,160.454 286.700 C 160.013 285.555,159.443 284.174,158.679 282.400 C 158.347 281.630,156.331 276.680,154.198 271.400 C 152.065 266.120,150.050 261.170,149.719 260.400 C 149.389 259.630,148.975 258.640,148.799 258.200 C 148.623 257.760,148.128 256.590,147.697 255.600 C 146.030 251.764,145.997 251.850,149.703 250.375 C 151.516 249.654,154.130 248.554,155.510 247.932 C 156.891 247.309,158.250 246.800,158.530 246.800 C 158.811 246.800,159.211 246.648,159.420 246.462 C 159.629 246.277,160.880 245.709,162.200 245.200 C 163.520 244.691,164.771 244.123,164.980 243.938 C 165.189 243.752,165.596 243.600,165.884 243.600 C 166.173 243.600,167.262 243.222,168.304 242.760 C 169.347 242.298,170.560 241.776,171.000 241.600 C 171.440 241.424,172.653 240.902,173.696 240.440 C 174.738 239.978,175.738 239.600,175.916 239.600 C 176.095 239.600,178.392 238.705,181.021 237.611 C 186.550 235.311,186.532 235.314,187.082 236.500 M107.200 269.801 C 107.200 270.063,107.454 270.800,107.765 271.439 C 108.075 272.077,110.254 277.370,112.607 283.200 C 114.960 289.030,117.209 294.520,117.606 295.400 C 118.003 296.280,119.079 298.890,119.997 301.200 C 120.915 303.510,121.955 306.015,122.310 306.766 C 123.175 308.602,123.574 308.380,108.424 314.500 C 101.481 317.306,95.440 319.756,95.000 319.947 C 94.059 320.354,92.366 321.054,91.100 321.559 C 90.605 321.757,89.570 322.193,88.800 322.528 C 82.346 325.338,82.402 325.340,81.239 322.300 C 80.713 320.925,79.931 318.990,79.502 318.000 C 79.072 317.010,78.582 315.840,78.414 315.400 C 78.245 314.960,77.879 314.060,77.600 313.400 C 77.321 312.740,76.955 311.840,76.787 311.400 C 76.619 310.960,76.211 309.970,75.881 309.200 C 73.893 304.569,66.000 284.928,66.000 284.614 C 66.000 284.542,67.665 283.820,69.700 283.008 C 71.735 282.196,74.030 281.259,74.800 280.925 C 75.570 280.592,76.560 280.175,77.000 280.000 C 77.440 279.825,78.430 279.407,79.200 279.072 C 79.970 278.737,81.590 278.074,82.800 277.600 C 85.456 276.559,87.557 275.661,88.495 275.166 C 88.877 274.965,89.374 274.800,89.599 274.800 C 89.824 274.800,90.772 274.457,91.704 274.038 C 93.701 273.142,95.042 272.577,101.200 270.040 C 105.901 268.103,107.200 268.051,107.200 269.801 " stroke="none" fill="#3cc4db" fill-rule="evenodd"></path><path id="path2" d="M190.000 14.949 L 190.000 30.010 175.100 29.905 L 160.200 29.800 159.992 17.000 C 159.877 9.960,159.742 4.412,159.692 4.672 C 159.641 4.931,158.565 5.432,157.300 5.784 C 150.165 7.773,142.128 10.651,134.738 13.865 C 93.762 31.681,58.229 72.082,46.757 113.900 C 46.560 114.615,46.220 115.830,46.000 116.600 C 39.047 140.934,38.149 176.865,44.028 195.436 C 44.243 196.115,44.443 197.296,44.472 198.059 L 44.524 199.446 49.762 197.320 C 52.643 196.150,55.405 195.015,55.900 194.797 C 57.036 194.296,58.735 193.595,59.900 193.146 C 60.395 192.956,61.250 192.620,61.800 192.400 C 62.350 192.180,63.205 191.838,63.700 191.641 C 64.195 191.443,65.230 191.008,66.000 190.674 C 66.770 190.341,68.660 189.575,70.200 188.974 C 71.740 188.373,73.171 187.728,73.380 187.540 C 73.589 187.353,73.989 187.200,74.268 187.200 C 74.548 187.200,75.727 186.768,76.888 186.240 C 78.050 185.711,81.156 184.429,83.791 183.390 C 86.427 182.350,89.217 181.227,89.991 180.895 C 90.766 180.562,91.805 180.134,92.300 179.945 C 92.795 179.755,93.605 179.420,94.100 179.200 C 94.595 178.980,96.080 178.367,97.400 177.837 L 99.800 176.873 100.000 148.537 L 100.200 120.200 115.000 120.000 L 129.800 119.800 129.905 104.905 L 130.010 90.010 144.905 89.905 L 159.800 89.800 160.000 75.000 L 160.200 60.200 175.100 60.095 L 190.000 59.990 190.000 44.990 L 190.000 29.990 204.900 30.095 L 219.800 30.200 220.000 45.000 L 220.200 59.800 250.000 59.800 L 279.800 59.800 280.000 45.000 L 280.200 30.200 292.400 29.991 C 299.462 29.870,302.124 29.744,298.721 29.691 L 292.841 29.600 287.121 25.862 C 283.974 23.806,280.140 21.434,278.600 20.591 C 274.798 18.510,267.364 14.770,265.183 13.841 C 264.202 13.423,262.680 12.769,261.800 12.386 C 260.061 11.630,255.141 9.743,251.529 8.448 C 249.256 7.632,241.159 5.329,237.400 4.429 C 236.300 4.165,234.770 3.797,234.000 3.611 C 231.754 3.068,228.733 2.462,226.902 2.186 C 225.968 2.045,225.103 1.766,224.978 1.565 C 224.854 1.364,223.608 1.200,222.210 1.200 C 220.652 1.200,219.607 1.022,219.514 0.741 C 219.404 0.412,215.215 0.226,204.680 0.085 L 190.000 -0.112 190.000 14.949 M310.032 51.500 L 310.000 60.000 317.644 60.000 C 324.954 60.000,325.255 59.969,324.512 59.300 C 324.085 58.915,322.593 57.250,321.196 55.600 C 319.800 53.950,316.819 50.710,314.574 48.400 C 312.328 46.090,310.394 43.930,310.277 43.600 C 310.159 43.270,310.049 46.825,310.032 51.500 M340.000 86.129 L 340.000 90.000 342.500 89.954 C 343.875 89.928,344.671 89.822,344.270 89.718 C 343.826 89.604,342.843 88.100,341.770 85.894 L 340.000 82.258 340.000 86.129 M190.000 105.005 L 190.000 120.010 204.900 119.905 L 219.800 119.800 219.905 104.900 L 220.010 90.000 205.005 90.000 L 190.000 90.000 190.000 105.005 M280.095 104.900 L 280.200 119.800 295.100 119.905 L 310.000 120.010 310.000 105.005 L 310.000 90.000 294.995 90.000 L 279.990 90.000 280.095 104.900 M370.085 107.476 C 370.038 114.118,370.135 119.636,370.300 119.739 C 370.465 119.841,370.554 116.297,370.498 111.862 C 370.307 96.821,370.170 95.363,370.085 107.476 M130.000 157.172 L 130.000 164.344 131.151 164.014 C 131.784 163.832,132.999 163.377,133.851 163.001 C 134.703 162.626,135.805 162.157,136.300 161.959 C 136.795 161.762,137.650 161.420,138.200 161.200 C 138.750 160.980,139.650 160.620,140.200 160.400 C 140.750 160.180,141.605 159.844,142.100 159.654 C 144.333 158.794,145.111 158.459,146.738 157.657 C 147.694 157.186,148.641 156.800,148.842 156.800 C 149.044 156.800,150.007 156.425,150.982 155.966 C 151.958 155.508,153.061 155.193,153.435 155.266 C 154.228 155.422,154.298 155.545,155.960 159.700 C 156.158 160.195,156.698 161.453,157.160 162.496 C 157.622 163.538,158.000 164.485,158.000 164.600 C 158.000 164.715,158.344 165.572,158.764 166.504 C 159.184 167.437,159.620 168.470,159.732 168.800 C 159.845 169.130,159.951 165.035,159.968 159.700 L 160.000 150.000 145.000 150.000 L 130.000 150.000 130.000 157.172 M339.905 164.900 L 339.800 179.800 325.000 180.000 L 310.200 180.200 310.095 195.100 L 309.990 210.000 295.000 210.000 L 280.010 210.000 279.905 195.100 L 279.800 180.200 250.000 180.200 L 220.200 180.200 220.200 191.200 L 220.200 202.200 221.334 205.000 C 221.957 206.540,222.741 208.430,223.074 209.200 C 223.818 210.914,224.396 212.312,224.854 213.500 C 225.455 215.062,225.900 216.157,226.520 217.600 C 226.851 218.370,229.047 223.770,231.400 229.600 C 233.753 235.430,235.949 240.830,236.280 241.600 C 236.611 242.370,237.043 243.405,237.241 243.900 C 237.438 244.395,237.804 245.295,238.054 245.900 C 238.303 246.505,238.645 247.360,238.814 247.800 C 238.982 248.240,239.498 249.453,239.960 250.496 C 240.422 251.538,240.800 252.485,240.800 252.600 C 240.800 252.715,241.142 253.572,241.559 254.504 C 241.977 255.437,242.552 256.766,242.838 257.457 C 243.381 258.771,243.508 258.785,245.800 257.796 C 247.679 256.985,259.772 252.075,264.192 250.328 C 266.387 249.460,268.817 248.473,269.592 248.134 C 270.366 247.796,271.405 247.357,271.900 247.159 C 272.395 246.962,273.205 246.638,273.700 246.441 C 274.195 246.243,275.230 245.808,276.000 245.474 C 283.616 242.171,283.471 242.162,284.980 246.057 C 285.607 247.676,286.471 249.810,286.900 250.800 C 287.329 251.790,287.842 253.005,288.040 253.500 C 288.238 253.995,288.580 254.850,288.800 255.400 C 289.020 255.950,289.380 256.850,289.600 257.400 C 289.820 257.950,290.180 258.850,290.400 259.400 C 290.620 259.950,290.962 260.805,291.160 261.300 C 291.358 261.795,291.898 263.053,292.360 264.096 C 292.822 265.138,293.200 266.085,293.200 266.200 C 293.200 266.315,293.578 267.262,294.040 268.304 C 294.502 269.347,295.042 270.605,295.240 271.100 C 295.438 271.595,295.782 272.405,296.004 272.900 C 296.226 273.395,297.357 276.177,298.518 279.083 L 300.629 284.365 306.043 279.622 C 315.904 270.984,326.936 258.276,333.669 247.800 C 337.655 241.599,338.400 240.404,338.400 240.211 C 338.400 240.101,332.055 239.963,324.300 239.905 L 310.200 239.800 310.095 224.895 L 309.990 209.990 324.895 210.095 L 339.800 210.200 340.000 223.771 L 340.200 237.343 343.668 230.171 C 345.576 226.227,347.440 222.190,347.812 221.200 C 348.184 220.210,348.724 218.860,349.014 218.200 C 349.304 217.540,350.011 215.560,350.587 213.800 C 351.163 212.040,351.799 210.240,352.001 209.800 C 352.486 208.744,354.541 201.476,355.564 197.200 C 358.612 184.454,360.162 170.239,359.937 157.100 L 359.815 150.000 349.913 150.000 L 340.010 150.000 339.905 164.900 M164.400 180.117 C 164.400 180.187,165.726 183.475,167.346 187.423 C 170.459 195.007,170.408 194.943,172.600 194.038 C 173.040 193.856,173.850 193.527,174.400 193.307 C 174.950 193.087,175.895 192.703,176.500 192.454 C 177.105 192.204,178.005 191.838,178.500 191.641 C 178.995 191.443,180.030 191.007,180.800 190.672 C 181.570 190.337,183.175 189.679,184.368 189.210 C 185.560 188.742,187.322 188.000,188.284 187.562 L 190.032 186.766 189.916 183.483 L 189.800 180.200 177.100 180.094 C 170.115 180.036,164.400 180.046,164.400 180.117 M175.200 240.377 C 174.601 240.707,172.912 241.434,171.400 242.014 C 170.960 242.182,169.790 242.669,168.800 243.096 C 167.810 243.522,162.549 245.655,157.109 247.836 C 150.819 250.356,147.214 252.004,147.209 252.361 C 147.201 252.839,149.883 259.749,151.880 264.400 C 152.655 266.204,153.220 267.574,153.654 268.700 C 154.282 270.333,154.711 271.383,155.328 272.800 C 155.663 273.570,156.326 275.190,156.800 276.400 C 157.274 277.610,157.937 279.230,158.272 280.000 C 158.607 280.770,159.019 281.760,159.187 282.200 C 159.597 283.271,160.190 284.703,160.926 286.400 C 161.261 287.170,161.839 288.565,162.211 289.500 C 162.905 291.246,163.645 291.590,165.105 290.847 C 165.487 290.652,166.250 290.311,166.800 290.087 C 167.350 289.864,168.430 289.410,169.200 289.077 C 169.970 288.745,175.370 286.548,181.200 284.196 C 187.030 281.844,192.430 279.649,193.200 279.319 C 194.922 278.580,196.290 278.015,197.600 277.500 C 198.150 277.284,198.913 276.948,199.295 276.753 C 199.677 276.559,200.217 276.394,200.495 276.387 C 202.834 276.328,202.274 273.635,197.940 264.090 C 197.313 262.709,196.800 261.438,196.800 261.265 C 196.800 261.092,196.440 260.205,196.000 259.294 C 195.560 258.384,195.200 257.396,195.200 257.099 C 195.200 256.803,195.047 256.389,194.860 256.180 C 194.673 255.971,194.208 254.990,193.827 254.000 C 193.446 253.010,192.861 251.570,192.526 250.800 C 191.640 248.758,190.714 246.499,189.986 244.600 C 189.818 244.160,189.301 242.945,188.838 241.900 L 187.996 240.000 181.898 240.024 C 178.544 240.036,175.530 240.196,175.200 240.377 M104.400 269.304 C 103.121 269.876,100.066 271.173,98.900 271.640 C 98.405 271.838,97.505 272.204,96.900 272.454 C 96.295 272.703,95.440 273.045,95.000 273.214 C 94.560 273.382,93.347 273.898,92.304 274.360 C 91.262 274.822,90.147 275.200,89.828 275.200 C 89.509 275.200,89.136 275.380,89.000 275.600 C 88.864 275.820,89.030 276.000,89.369 276.000 C 89.707 276.000,91.383 277.282,93.092 278.849 C 98.441 283.752,105.123 288.931,111.334 292.987 C 113.790 294.592,116.295 296.365,116.900 296.927 C 117.505 297.489,118.000 297.905,118.000 297.852 C 118.000 297.721,115.277 290.944,114.523 289.200 C 113.770 287.455,113.195 286.065,112.746 284.900 C 112.556 284.405,112.220 283.550,112.000 283.000 C 111.780 282.450,111.438 281.595,111.241 281.100 C 111.043 280.605,110.593 279.525,110.241 278.700 C 109.888 277.875,109.312 276.525,108.959 275.700 C 108.607 274.875,108.181 273.840,108.013 273.400 C 107.845 272.960,107.482 272.060,107.207 271.400 C 106.078 268.690,105.965 268.605,104.400 269.304 M253.800 302.032 C 251.160 303.112,248.550 304.201,248.000 304.452 C 247.450 304.702,246.640 305.039,246.200 305.200 C 245.321 305.522,243.992 306.049,242.300 306.746 C 241.695 306.996,240.795 307.362,240.300 307.559 C 239.805 307.757,238.770 308.193,238.000 308.528 C 237.230 308.863,235.610 309.526,234.400 310.000 C 233.190 310.474,231.570 311.137,230.800 311.472 C 230.030 311.807,229.040 312.225,228.600 312.401 C 228.160 312.577,226.990 313.072,226.000 313.502 C 225.010 313.931,223.339 314.606,222.287 315.001 C 219.968 315.871,219.894 315.976,220.452 317.579 C 220.780 318.519,221.065 318.781,221.548 318.585 C 221.906 318.440,223.280 318.170,224.600 317.984 C 228.699 317.408,232.374 316.722,235.200 316.005 C 235.970 315.810,237.500 315.438,238.600 315.179 C 243.227 314.089,253.094 310.971,257.759 309.126 C 259.936 308.264,261.971 307.657,262.280 307.775 C 262.589 307.894,262.779 307.858,262.702 307.695 C 262.277 306.797,261.442 304.871,261.100 304.000 C 260.884 303.450,260.548 302.687,260.353 302.305 C 260.159 301.923,260.000 301.358,260.000 301.048 C 260.000 300.610,259.014 299.859,258.667 300.034 C 258.630 300.053,256.440 300.952,253.800 302.032 " stroke="none" fill="#fbe384" fill-rule="evenodd"></path><path id="path3" d="M214.291 0.289 C 215.001 0.377,216.261 0.379,217.091 0.292 C 217.921 0.205,217.340 0.133,215.800 0.131 C 214.260 0.129,213.581 0.200,214.291 0.289 M219.600 0.800 C 219.600 1.025,220.725 1.200,222.176 1.200 C 223.593 1.200,224.854 1.364,224.978 1.565 C 225.103 1.766,225.968 2.045,226.902 2.186 C 228.733 2.462,231.754 3.068,234.000 3.611 C 234.770 3.797,236.300 4.165,237.400 4.429 C 241.159 5.329,249.256 7.632,251.529 8.448 C 255.141 9.743,260.061 11.630,261.800 12.386 C 262.680 12.769,264.202 13.423,265.183 13.841 C 267.364 14.770,274.798 18.510,278.600 20.591 C 280.140 21.434,283.974 23.806,287.121 25.862 L 292.841 29.600 298.721 29.594 C 305.310 29.587,306.274 29.345,304.187 28.221 C 303.424 27.810,302.800 27.292,302.800 27.070 C 302.800 26.848,302.682 26.785,302.537 26.930 C 302.392 27.075,302.040 26.999,301.755 26.763 C 301.078 26.201,298.326 24.800,297.899 24.800 C 297.716 24.800,297.180 24.440,296.708 24.000 C 295.927 23.272,295.159 23.008,294.270 23.163 C 294.089 23.194,294.055 23.035,294.194 22.810 C 294.333 22.584,294.167 22.400,293.824 22.400 C 293.481 22.400,293.200 22.220,293.200 22.000 C 293.200 21.780,292.876 21.600,292.480 21.600 C 292.084 21.600,291.589 21.437,291.380 21.238 C 290.678 20.568,287.982 19.200,287.364 19.200 C 287.028 19.200,286.864 19.020,287.000 18.800 C 287.210 18.460,286.091 18.196,285.100 18.353 C 284.935 18.379,284.800 18.220,284.800 18.000 C 284.800 17.780,284.440 17.600,284.000 17.600 C 283.560 17.600,283.200 17.420,283.200 17.200 C 283.200 16.980,282.840 16.800,282.400 16.800 C 281.960 16.800,281.600 16.620,281.600 16.400 C 281.600 16.180,281.328 16.000,280.995 16.000 C 280.439 16.000,278.878 15.278,278.400 14.800 C 278.290 14.690,277.750 14.538,277.200 14.462 C 276.650 14.386,276.140 14.161,276.067 13.962 C 275.993 13.763,275.588 13.600,275.167 13.600 C 274.745 13.600,274.400 13.459,274.400 13.287 C 274.400 13.115,273.905 12.934,273.300 12.884 C 272.695 12.834,272.140 12.615,272.067 12.397 C 271.993 12.178,271.676 12.000,271.361 12.000 C 271.047 12.000,270.477 11.833,270.095 11.629 C 269.189 11.146,267.991 10.717,267.031 10.532 C 266.609 10.451,266.024 10.186,265.731 9.943 C 265.439 9.701,265.200 9.610,265.200 9.741 C 265.200 9.873,264.705 9.789,264.100 9.555 C 262.705 9.015,261.734 8.762,260.096 8.511 C 259.379 8.401,258.694 8.151,258.573 7.956 C 258.452 7.760,257.911 7.600,257.371 7.600 C 256.831 7.600,256.077 7.442,255.695 7.249 C 254.440 6.615,252.163 6.000,251.072 6.000 C 250.482 6.000,250.000 5.820,250.000 5.600 C 250.000 5.380,249.381 5.200,248.624 5.200 C 247.867 5.200,247.136 5.020,247.000 4.800 C 246.864 4.580,246.144 4.400,245.400 4.400 C 244.656 4.400,243.936 4.220,243.800 4.000 C 243.664 3.780,242.764 3.600,241.800 3.600 C 240.836 3.600,239.936 3.420,239.800 3.200 C 239.664 2.980,238.653 2.800,237.553 2.800 C 236.321 2.800,235.648 2.646,235.800 2.400 C 235.955 2.149,235.071 2.000,233.424 2.000 C 231.941 2.000,230.800 1.826,230.800 1.600 C 230.800 1.371,229.600 1.200,228.000 1.200 C 226.400 1.200,225.200 1.029,225.200 0.800 C 225.200 0.571,224.000 0.400,222.400 0.400 C 220.800 0.400,219.600 0.571,219.600 0.800 M156.200 4.000 C 156.064 4.220,155.333 4.400,154.576 4.400 C 153.819 4.400,153.200 4.580,153.200 4.800 C 153.200 5.020,152.390 5.200,151.400 5.200 C 150.410 5.200,149.600 5.380,149.600 5.600 C 149.600 5.820,148.880 6.000,148.000 6.000 C 147.120 6.000,146.400 6.180,146.400 6.400 C 146.400 6.620,145.961 6.800,145.424 6.800 C 144.887 6.800,144.336 6.980,144.200 7.200 C 144.064 7.420,143.434 7.600,142.800 7.600 C 142.166 7.600,141.536 7.780,141.400 8.000 C 141.264 8.220,140.634 8.400,140.000 8.400 C 139.366 8.400,138.730 8.590,138.587 8.821 C 138.444 9.053,138.118 9.172,137.863 9.086 C 137.609 8.999,136.860 9.154,136.200 9.428 C 135.540 9.703,134.910 9.931,134.800 9.935 C 134.690 9.940,134.060 10.150,133.400 10.401 C 132.740 10.652,131.701 10.958,131.092 11.081 C 130.482 11.203,129.886 11.460,129.768 11.652 C 129.650 11.843,129.218 12.000,128.810 12.000 C 128.401 12.000,128.007 12.178,127.933 12.397 C 127.860 12.615,127.305 12.834,126.700 12.884 C 126.095 12.934,125.600 13.115,125.600 13.287 C 125.600 13.459,125.255 13.600,124.833 13.600 C 124.412 13.600,124.004 13.788,123.927 14.018 C 123.851 14.248,123.386 14.466,122.894 14.503 C 122.402 14.540,122.000 14.712,122.000 14.885 C 122.000 15.058,121.651 15.200,121.224 15.200 C 120.797 15.200,120.336 15.380,120.200 15.600 C 120.064 15.820,119.603 16.000,119.176 16.000 C 118.749 16.000,118.400 16.180,118.400 16.400 C 118.400 16.620,118.040 16.800,117.600 16.800 C 117.160 16.800,116.800 16.980,116.800 17.200 C 116.800 17.420,116.485 17.599,116.100 17.597 C 115.325 17.593,108.678 20.814,108.467 21.296 C 108.393 21.463,108.123 21.604,107.867 21.609 C 107.610 21.614,106.950 21.970,106.400 22.400 C 105.850 22.830,105.119 23.186,104.775 23.191 C 104.432 23.196,103.764 23.560,103.292 24.000 C 102.820 24.440,102.156 24.800,101.817 24.800 C 101.478 24.800,101.200 24.980,101.200 25.200 C 101.200 25.420,101.065 25.564,100.900 25.521 C 100.354 25.377,98.800 26.047,98.800 26.427 C 98.800 26.632,98.455 26.800,98.033 26.800 C 97.612 26.800,97.207 26.935,97.133 27.100 C 96.939 27.538,94.498 29.200,94.050 29.200 C 93.839 29.200,93.607 29.367,93.533 29.570 C 93.460 29.774,93.130 29.999,92.800 30.070 C 92.470 30.142,91.909 30.515,91.553 30.900 C 91.197 31.285,90.652 31.600,90.341 31.600 C 90.031 31.600,89.517 31.960,89.200 32.400 C 88.883 32.840,88.385 33.200,88.094 33.200 C 87.802 33.200,87.110 33.653,86.556 34.208 C 86.002 34.762,85.352 35.094,85.112 34.946 C 84.851 34.785,84.791 34.862,84.962 35.138 C 85.131 35.412,84.993 35.600,84.624 35.600 C 84.281 35.600,84.000 35.738,84.000 35.906 C 84.000 36.074,83.280 36.656,82.400 37.200 C 81.520 37.744,80.800 38.326,80.800 38.494 C 80.800 38.662,80.429 38.800,79.976 38.800 C 79.523 38.800,79.247 38.953,79.363 39.140 C 79.478 39.327,79.129 39.717,78.586 40.007 C 78.044 40.298,77.600 40.685,77.600 40.868 C 77.600 41.050,77.319 41.200,76.976 41.200 C 76.633 41.200,76.464 41.380,76.600 41.600 C 76.736 41.820,76.567 42.000,76.224 42.000 C 75.881 42.000,75.600 42.210,75.600 42.467 C 75.600 42.723,75.505 42.838,75.389 42.723 C 75.273 42.607,74.521 43.114,73.717 43.850 C 72.913 44.587,72.187 45.120,72.102 45.036 C 72.018 44.951,71.286 45.545,70.475 46.355 C 69.664 47.165,68.396 48.252,67.659 48.771 C 66.319 49.712,58.654 57.200,59.029 57.200 C 59.139 57.200,58.817 57.626,58.314 58.146 C 57.811 58.667,57.343 59.045,57.274 58.987 C 57.059 58.807,49.764 66.246,48.771 67.659 C 48.252 68.396,47.192 69.651,46.414 70.447 C 45.636 71.243,44.943 72.135,44.872 72.430 C 44.802 72.725,44.233 73.455,43.608 74.052 C 42.983 74.650,42.576 75.242,42.703 75.369 C 42.829 75.496,42.723 75.600,42.467 75.600 C 42.210 75.600,42.000 75.881,42.000 76.224 C 42.000 76.567,41.820 76.736,41.600 76.600 C 41.380 76.464,41.200 76.633,41.200 76.976 C 41.200 77.319,41.050 77.600,40.868 77.600 C 40.685 77.600,40.298 78.044,40.007 78.586 C 39.717 79.129,39.327 79.478,39.140 79.363 C 38.953 79.247,38.800 79.441,38.800 79.793 C 38.800 80.145,38.440 80.820,38.000 81.292 C 37.560 81.764,37.200 82.398,37.200 82.699 C 37.200 83.001,37.020 83.136,36.800 83.000 C 36.580 82.864,36.400 82.994,36.400 83.288 C 36.400 83.583,36.040 84.083,35.600 84.400 C 35.160 84.717,34.800 85.257,34.800 85.600 C 34.800 85.943,34.440 86.483,34.000 86.800 C 33.560 87.117,33.200 87.697,33.200 88.088 C 33.200 88.480,33.050 88.800,32.868 88.800 C 32.685 88.800,32.281 89.295,31.970 89.900 C 31.660 90.505,31.134 91.270,30.803 91.600 C 30.471 91.930,30.141 92.468,30.068 92.796 C 29.995 93.124,29.806 93.484,29.647 93.596 C 29.488 93.708,28.924 94.520,28.394 95.400 C 27.864 96.280,27.197 97.240,26.911 97.532 C 26.626 97.825,26.495 98.230,26.620 98.432 C 26.745 98.635,26.669 98.800,26.451 98.800 C 26.053 98.800,25.372 100.337,25.521 100.900 C 25.564 101.065,25.420 101.200,25.200 101.200 C 24.980 101.200,24.800 101.478,24.800 101.817 C 24.800 102.156,24.440 102.820,24.000 103.292 C 23.272 104.073,23.008 104.841,23.163 105.730 C 23.194 105.911,23.074 105.969,22.895 105.859 C 22.716 105.748,22.321 106.230,22.017 106.929 C 21.713 107.628,21.360 108.290,21.232 108.400 C 20.668 108.886,19.199 112.156,19.194 112.938 C 19.189 113.641,19.116 113.689,18.800 113.200 C 18.467 112.685,18.411 112.698,18.406 113.288 C 18.403 113.666,18.040 114.617,17.600 115.400 C 17.160 116.183,16.800 117.179,16.800 117.612 C 16.800 118.045,16.620 118.400,16.400 118.400 C 16.180 118.400,16.000 118.749,16.000 119.176 C 16.000 119.603,15.820 120.064,15.600 120.200 C 15.380 120.336,15.200 120.797,15.200 121.224 C 15.200 121.651,15.020 122.000,14.800 122.000 C 14.580 122.000,14.400 122.450,14.400 123.000 C 14.400 123.550,14.209 124.000,13.976 124.000 C 13.743 124.000,13.655 124.165,13.780 124.368 C 13.905 124.570,13.781 124.975,13.504 125.268 C 13.227 125.560,12.938 126.250,12.862 126.800 C 12.786 127.350,12.561 127.860,12.362 127.933 C 12.163 128.007,12.000 128.324,12.000 128.639 C 12.000 128.953,11.833 129.523,11.629 129.905 C 11.146 130.811,10.717 132.009,10.532 132.969 C 10.451 133.391,10.186 133.976,9.943 134.269 C 9.701 134.561,9.610 134.800,9.741 134.800 C 9.873 134.800,9.789 135.295,9.555 135.900 C 9.015 137.294,8.762 138.266,8.512 139.900 C 8.402 140.615,8.152 141.200,7.956 141.200 C 7.760 141.200,7.600 141.742,7.600 142.405 C 7.600 143.068,7.442 143.923,7.249 144.305 C 6.665 145.461,6.000 147.804,6.000 148.705 C 6.000 149.171,5.820 149.664,5.600 149.800 C 5.380 149.936,5.200 150.757,5.200 151.624 C 5.200 152.491,5.020 153.200,4.800 153.200 C 4.580 153.200,4.400 153.819,4.400 154.576 C 4.400 155.333,4.220 156.064,4.000 156.200 C 3.780 156.336,3.600 157.236,3.600 158.200 C 3.600 159.164,3.420 160.064,3.200 160.200 C 2.980 160.336,2.800 161.347,2.800 162.447 C 2.800 163.679,2.646 164.352,2.400 164.200 C 2.149 164.045,2.000 164.929,2.000 166.576 C 2.000 168.059,1.826 169.200,1.600 169.200 C 1.376 169.200,1.200 170.307,1.200 171.720 C 1.200 173.203,0.994 174.446,0.700 174.740 C -0.029 175.469,-0.029 224.131,0.700 224.860 C 0.999 225.159,1.200 226.421,1.200 228.000 C 1.200 229.452,1.363 230.811,1.563 231.020 C 1.763 231.229,2.028 232.300,2.152 233.400 C 2.702 238.264,2.900 239.423,3.239 239.780 C 3.437 239.989,3.600 240.923,3.600 241.856 C 3.600 242.789,3.780 243.664,4.000 243.800 C 4.220 243.936,4.400 244.656,4.400 245.400 C 4.400 246.144,4.580 246.864,4.800 247.000 C 5.020 247.136,5.200 247.957,5.200 248.824 C 5.200 249.691,5.360 250.400,5.556 250.400 C 5.752 250.400,6.022 251.030,6.156 251.800 C 6.290 252.570,6.510 253.830,6.644 254.600 C 6.778 255.370,7.048 256.000,7.244 256.000 C 7.440 256.000,7.600 256.630,7.600 257.400 C 7.600 258.170,7.780 258.800,8.000 258.800 C 8.220 258.800,8.400 259.332,8.400 259.981 C 8.400 261.135,8.425 261.150,9.500 260.618 C 10.105 260.319,11.050 259.901,11.600 259.691 C 12.150 259.480,13.095 259.103,13.700 258.854 C 14.305 258.604,15.205 258.238,15.700 258.041 C 16.195 257.843,17.275 257.393,18.100 257.041 C 18.925 256.688,20.275 256.112,21.100 255.759 C 21.925 255.407,23.005 254.957,23.500 254.759 C 23.995 254.562,24.805 254.238,25.300 254.041 C 25.795 253.843,26.830 253.408,27.600 253.074 C 28.370 252.739,30.890 251.727,33.200 250.824 C 37.238 249.247,39.445 248.336,43.096 246.741 C 44.028 246.333,44.939 246.000,45.121 246.000 C 45.397 246.000,48.791 244.481,49.099 244.219 C 49.194 244.138,47.808 240.577,46.523 237.600 C 46.190 236.830,45.757 235.795,45.559 235.300 C 45.362 234.805,44.996 233.905,44.746 233.300 C 44.160 231.878,43.571 230.405,43.187 229.400 C 43.019 228.960,42.572 227.880,42.193 227.000 C 41.105 224.470,40.348 222.673,39.959 221.700 C 39.762 221.205,39.438 220.395,39.241 219.900 C 39.043 219.405,38.609 218.370,38.276 217.600 C 36.614 213.757,33.200 204.968,33.200 204.533 C 33.200 204.096,34.384 203.432,37.000 202.404 C 37.440 202.231,38.903 201.619,40.250 201.045 C 41.598 200.470,42.890 200.000,43.121 200.000 C 44.158 200.000,44.701 198.847,44.384 197.321 C 38.370 168.400,38.620 143.861,45.177 119.600 C 45.521 118.326,45.750 117.498,46.779 113.800 C 60.530 64.410,103.982 21.192,154.574 6.586 C 159.047 5.294,160.225 4.688,159.750 3.919 C 159.465 3.458,156.493 3.526,156.200 4.000 M310.186 34.156 C 310.041 35.122,309.985 37.729,310.061 39.950 L 310.200 43.988 314.428 48.294 C 316.754 50.662,319.800 53.950,321.196 55.600 C 325.250 60.389,324.238 60.000,332.644 60.000 L 340.000 60.000 340.000 71.129 L 340.000 82.258 341.776 85.906 C 343.953 90.381,342.879 90.091,356.667 89.926 C 366.352 89.809,368.409 89.608,367.388 88.878 C 367.174 88.725,366.744 88.105,366.432 87.500 C 366.120 86.895,365.715 86.400,365.532 86.400 C 365.350 86.400,365.200 86.080,365.200 85.688 C 365.200 85.297,364.840 84.717,364.400 84.400 C 363.960 84.083,363.599 83.638,363.598 83.412 C 363.597 83.185,363.057 82.425,362.398 81.722 C 361.739 81.019,361.200 80.255,361.200 80.025 C 361.200 79.795,360.660 79.091,360.000 78.460 C 359.340 77.829,358.800 77.097,358.800 76.833 C 358.800 76.569,358.620 76.464,358.400 76.600 C 358.180 76.736,358.000 76.567,358.000 76.224 C 358.000 75.881,357.790 75.600,357.533 75.600 C 357.277 75.600,357.162 75.505,357.277 75.389 C 357.393 75.273,356.886 74.521,356.150 73.717 C 355.413 72.913,354.880 72.187,354.964 72.102 C 355.049 72.018,354.455 71.286,353.645 70.475 C 352.835 69.664,351.748 68.396,351.229 67.659 C 350.236 66.246,342.941 58.807,342.726 58.987 C 342.657 59.045,342.189 58.667,341.686 58.146 C 341.183 57.626,340.861 57.200,340.971 57.200 C 341.080 57.200,339.459 55.490,337.369 53.400 C 335.279 51.310,333.436 49.600,333.274 49.600 C 333.112 49.600,331.862 48.547,330.496 47.260 C 329.131 45.973,327.925 45.008,327.816 45.117 C 327.708 45.226,327.505 45.019,327.367 44.657 C 327.228 44.296,326.874 44.000,326.580 44.000 C 326.286 44.000,325.765 43.600,325.423 43.111 C 325.080 42.622,324.800 42.380,324.800 42.572 C 324.800 42.765,324.464 42.535,324.053 42.061 C 323.642 41.588,323.167 41.200,322.996 41.200 C 322.826 41.200,322.171 40.660,321.540 40.000 C 320.909 39.340,320.205 38.800,319.975 38.800 C 319.745 38.800,318.981 38.261,318.278 37.602 C 317.575 36.943,316.815 36.403,316.588 36.402 C 316.362 36.401,315.917 36.040,315.600 35.600 C 315.283 35.160,314.786 34.800,314.495 34.800 C 314.204 34.800,313.580 34.440,313.108 34.000 C 312.636 33.560,312.013 33.200,311.725 33.200 C 311.436 33.200,311.200 33.020,311.200 32.800 C 311.200 31.603,310.410 32.660,310.186 34.156 M370.622 95.204 C 370.493 95.537,370.436 101.207,370.494 107.804 L 370.600 119.800 376.600 119.893 C 382.313 119.982,385.800 119.308,383.700 118.521 C 383.425 118.418,383.200 117.988,383.200 117.567 C 383.200 117.145,383.020 116.800,382.800 116.800 C 382.580 116.800,382.400 116.339,382.400 115.776 C 382.400 115.196,382.227 114.860,382.000 115.000 C 381.780 115.136,381.600 114.972,381.600 114.635 C 381.600 113.828,379.710 109.715,379.192 109.395 C 378.969 109.257,378.891 108.977,379.017 108.772 C 379.144 108.568,379.102 108.399,378.924 108.397 C 378.546 108.393,377.600 106.480,377.600 105.720 C 377.600 105.434,377.420 105.200,377.200 105.200 C 376.980 105.200,376.800 104.964,376.800 104.675 C 376.800 104.387,376.440 103.764,376.000 103.292 C 375.560 102.820,375.200 102.252,375.200 102.030 C 375.200 101.358,373.874 98.800,373.526 98.800 C 373.347 98.800,373.200 98.532,373.200 98.205 C 373.200 97.877,372.933 97.292,372.608 96.905 C 372.282 96.517,371.755 95.840,371.436 95.400 C 370.954 94.734,370.818 94.701,370.622 95.204 M359.952 150.288 C 359.926 150.459,359.940 153.660,359.984 157.400 C 360.136 170.466,358.557 184.683,355.564 197.200 C 354.541 201.476,352.486 208.744,352.001 209.800 C 351.799 210.240,351.163 212.040,350.587 213.800 C 350.011 215.560,349.311 217.540,349.030 218.200 C 348.749 218.860,347.917 220.840,347.180 222.600 C 346.443 224.360,344.526 228.461,342.920 231.713 C 341.278 235.038,340.000 238.146,340.000 238.813 C 340.000 239.675,339.809 240.001,339.300 240.003 C 338.877 240.006,337.984 240.993,337.041 242.503 C 327.933 257.092,317.702 269.402,306.672 279.046 C 303.992 281.389,301.550 283.538,301.246 283.822 C 300.703 284.326,301.506 286.813,304.275 293.200 C 304.893 294.625,305.327 295.690,305.946 297.300 C 306.137 297.795,306.497 298.695,306.746 299.300 C 306.996 299.905,307.362 300.805,307.559 301.300 C 307.757 301.795,308.207 302.875,308.559 303.700 C 308.912 304.525,309.488 305.875,309.841 306.700 C 310.193 307.525,310.643 308.605,310.841 309.100 C 311.038 309.595,311.380 310.450,311.600 311.000 C 311.820 311.550,312.162 312.405,312.359 312.900 C 312.557 313.395,312.992 314.430,313.327 315.200 C 313.662 315.970,314.502 318.030,315.195 319.778 L 316.454 322.956 315.527 323.669 C 315.017 324.061,314.373 324.386,314.095 324.391 C 313.817 324.396,313.277 324.560,312.895 324.756 C 312.513 324.952,311.300 325.515,310.200 326.007 C 308.326 326.845,307.744 327.089,305.200 328.107 C 304.650 328.327,303.750 328.687,303.200 328.907 C 302.650 329.127,301.840 329.445,301.400 329.613 C 300.960 329.781,299.970 330.189,299.200 330.519 C 298.430 330.849,294.110 332.599,289.600 334.408 C 285.090 336.216,280.637 338.034,279.704 338.448 C 278.772 338.861,277.747 339.200,277.428 339.200 C 277.109 339.200,276.721 339.404,276.566 339.654 C 276.254 340.159,274.824 338.565,274.809 337.695 C 274.804 337.417,274.635 336.877,274.433 336.495 C 273.870 335.431,272.400 332.035,272.400 331.800 C 272.400 331.685,272.022 330.738,271.560 329.696 C 271.098 328.653,270.577 327.440,270.401 327.000 C 270.225 326.560,269.808 325.570,269.474 324.800 C 269.139 324.030,268.127 321.510,267.224 319.200 C 265.646 315.159,264.733 312.948,263.139 309.300 C 262.239 307.241,262.505 307.248,257.708 309.146 C 253.087 310.974,243.206 314.094,238.600 315.179 C 237.500 315.438,235.970 315.811,235.200 316.008 C 232.733 316.637,228.422 317.423,223.114 318.210 C 221.329 318.475,220.958 318.958,221.553 320.238 C 221.799 320.767,222.162 321.605,222.360 322.100 C 222.558 322.595,223.098 323.853,223.560 324.896 C 224.022 325.938,224.400 326.956,224.400 327.158 C 224.400 327.359,224.786 328.306,225.257 329.262 C 225.728 330.218,226.268 331.405,226.457 331.900 C 226.646 332.395,226.980 333.250,227.200 333.800 C 227.420 334.350,227.780 335.250,228.000 335.800 C 228.512 337.081,229.213 338.780,229.649 339.800 C 231.514 344.159,236.000 355.445,236.000 355.778 C 236.000 356.013,235.415 356.444,234.700 356.737 C 233.985 357.029,232.590 357.636,231.600 358.085 C 229.917 358.848,229.438 359.046,227.100 359.946 C 226.605 360.137,225.705 360.497,225.100 360.746 C 224.495 360.996,223.595 361.362,223.100 361.559 C 222.605 361.757,221.570 362.190,220.800 362.521 C 220.030 362.853,215.080 364.869,209.800 367.002 C 204.520 369.135,199.660 371.107,199.000 371.384 C 195.525 372.843,195.708 372.824,195.031 371.791 C 194.684 371.262,194.400 370.639,194.400 370.409 C 194.400 370.178,194.241 369.677,194.047 369.295 C 193.673 368.560,192.924 366.801,192.346 365.300 C 192.156 364.805,191.796 363.905,191.546 363.300 C 191.297 362.695,190.955 361.840,190.786 361.400 C 190.618 360.960,190.102 359.747,189.640 358.704 C 189.178 357.662,188.800 356.715,188.800 356.600 C 188.800 356.485,188.422 355.538,187.960 354.496 C 187.498 353.453,186.977 352.240,186.801 351.800 C 186.625 351.360,186.199 350.354,185.853 349.565 C 185.507 348.776,184.391 345.986,183.372 343.365 C 181.350 338.163,180.528 336.170,179.966 335.105 C 179.765 334.723,179.600 334.158,179.600 333.848 C 179.600 332.616,171.677 335.279,160.100 340.402 C 159.169 340.814,157.857 341.347,156.300 341.946 C 154.243 342.738,150.665 344.264,149.039 345.044 C 148.400 345.350,147.723 345.600,147.534 345.600 C 147.346 345.600,146.338 345.978,145.296 346.440 C 144.253 346.902,143.040 347.418,142.600 347.586 C 140.324 348.459,139.673 348.928,139.875 349.551 C 140.082 350.188,140.416 350.998,141.793 354.200 C 142.645 356.180,143.203 357.530,143.654 358.700 C 144.255 360.262,144.700 361.357,145.320 362.800 C 145.651 363.570,147.845 368.970,150.196 374.800 C 152.547 380.630,154.725 385.923,155.035 386.561 C 156.150 388.853,156.067 388.938,150.400 391.280 C 149.850 391.507,149.087 391.852,148.705 392.047 C 148.323 392.241,147.758 392.400,147.448 392.400 C 146.644 392.400,146.333 393.489,147.058 393.767 C 147.392 393.895,148.101 394.000,148.633 394.000 C 149.165 394.000,149.600 394.180,149.600 394.400 C 149.600 394.620,150.309 394.800,151.176 394.800 C 152.043 394.800,152.864 394.980,153.000 395.200 C 153.136 395.420,153.946 395.600,154.800 395.600 C 155.654 395.600,156.464 395.780,156.600 396.000 C 156.736 396.220,157.557 396.400,158.424 396.400 C 159.291 396.400,160.000 396.548,160.000 396.729 C 160.000 396.909,160.945 397.099,162.100 397.151 C 163.255 397.203,164.371 397.415,164.580 397.623 C 164.789 397.830,165.903 398.000,167.056 398.000 C 168.209 398.000,169.264 398.180,169.400 398.400 C 169.536 398.620,170.792 398.800,172.190 398.800 C 173.869 398.800,174.790 398.970,174.900 399.300 C 175.031 399.693,180.352 399.800,199.713 399.800 C 218.897 399.800,224.471 399.689,224.860 399.300 C 225.159 399.001,226.421 398.800,228.000 398.800 C 229.452 398.800,230.811 398.637,231.020 398.437 C 231.229 398.237,232.300 397.972,233.400 397.848 C 238.264 397.298,239.423 397.100,239.780 396.761 C 239.989 396.563,240.833 396.400,241.656 396.400 C 242.479 396.400,243.264 396.220,243.400 396.000 C 243.536 395.780,244.346 395.600,245.200 395.600 C 246.054 395.600,246.864 395.420,247.000 395.200 C 247.136 394.980,247.957 394.800,248.824 394.800 C 249.691 394.800,250.400 394.640,250.400 394.444 C 250.400 394.248,251.030 393.978,251.800 393.844 C 252.570 393.710,253.830 393.490,254.600 393.356 C 255.370 393.222,256.000 392.952,256.000 392.756 C 256.000 392.560,256.630 392.400,257.400 392.400 C 258.170 392.400,258.800 392.240,258.800 392.044 C 258.800 391.848,259.385 391.598,260.100 391.488 C 262.153 391.174,263.322 390.844,263.571 390.509 C 263.697 390.339,264.160 390.211,264.600 390.225 C 265.040 390.239,265.580 390.122,265.800 389.966 C 266.020 389.810,267.010 389.448,268.000 389.162 C 268.990 388.875,270.396 388.314,271.124 387.914 C 271.852 387.514,272.887 387.151,273.424 387.106 C 273.961 387.062,274.400 386.885,274.400 386.713 C 274.400 386.541,274.760 386.400,275.200 386.400 C 275.640 386.400,276.000 386.220,276.000 386.000 C 276.000 385.780,276.450 385.600,277.000 385.600 C 277.550 385.600,278.000 385.420,278.000 385.200 C 278.000 384.980,278.349 384.800,278.776 384.800 C 279.203 384.800,279.664 384.620,279.800 384.400 C 279.936 384.180,280.397 384.000,280.824 384.000 C 281.251 384.000,281.600 383.820,281.600 383.600 C 281.600 383.380,281.872 383.200,282.205 383.200 C 282.538 383.200,283.168 383.020,283.605 382.800 C 284.042 382.580,284.758 382.220,285.195 382.000 C 285.632 381.780,286.272 381.600,286.618 381.600 C 286.964 381.600,287.136 381.420,287.000 381.200 C 286.864 380.980,287.036 380.800,287.382 380.800 C 288.060 380.800,289.376 380.141,290.500 379.238 C 290.885 378.929,291.203 378.839,291.206 379.038 C 291.209 379.237,291.344 379.200,291.506 378.955 C 291.668 378.710,293.015 377.926,294.500 377.213 C 295.985 376.500,297.200 375.755,297.200 375.558 C 297.200 375.361,297.432 375.200,297.715 375.200 C 298.288 375.200,300.947 373.908,301.755 373.237 C 302.040 373.001,302.392 372.925,302.537 373.070 C 302.682 373.215,302.800 373.123,302.800 372.867 C 302.800 372.610,303.070 372.400,303.400 372.400 C 303.730 372.400,304.000 372.232,304.000 372.027 C 304.000 371.822,304.359 371.540,304.798 371.401 C 305.236 371.262,305.847 370.896,306.155 370.588 C 306.463 370.280,306.959 369.977,307.257 369.914 C 307.556 369.851,308.070 369.529,308.400 369.197 C 308.730 368.866,309.495 368.340,310.100 368.030 C 310.705 367.719,311.200 367.315,311.200 367.132 C 311.200 366.950,311.399 366.800,311.642 366.800 C 311.885 366.800,312.621 366.349,313.276 365.797 C 313.932 365.246,314.660 364.914,314.896 365.059 C 315.136 365.208,315.208 365.137,315.060 364.896 C 314.912 364.658,315.314 364.240,315.969 363.950 C 316.614 363.664,317.055 363.288,316.948 363.115 C 316.840 362.942,316.999 362.800,317.301 362.800 C 317.602 362.800,318.236 362.440,318.708 362.000 C 319.180 361.560,319.753 361.200,319.980 361.200 C 320.207 361.200,320.909 360.660,321.540 360.000 C 322.171 359.340,322.903 358.800,323.167 358.800 C 323.431 358.800,323.536 358.620,323.400 358.400 C 323.264 358.180,323.433 358.000,323.776 358.000 C 324.119 358.000,324.400 357.790,324.400 357.533 C 324.400 357.277,324.495 357.162,324.611 357.277 C 324.727 357.393,325.479 356.886,326.283 356.150 C 327.087 355.413,327.813 354.880,327.898 354.964 C 327.982 355.049,328.714 354.455,329.525 353.645 C 330.336 352.835,331.599 351.751,332.331 351.236 C 334.107 349.989,335.568 348.502,335.291 348.224 C 335.168 348.101,335.285 348.000,335.551 348.000 C 335.818 348.000,337.183 346.830,338.585 345.400 C 339.987 343.970,341.053 342.800,340.953 342.800 C 340.853 342.800,341.183 342.374,341.686 341.854 C 342.189 341.333,342.656 340.954,342.724 341.011 C 342.956 341.205,344.800 339.166,344.800 338.715 C 344.800 338.468,344.909 338.376,345.042 338.509 C 345.323 338.790,349.949 334.166,351.273 332.280 C 351.768 331.576,352.835 330.336,353.645 329.525 C 354.455 328.714,355.049 327.982,354.964 327.898 C 354.880 327.813,355.413 327.087,356.150 326.283 C 356.886 325.479,357.393 324.727,357.277 324.611 C 357.162 324.495,357.277 324.400,357.533 324.400 C 357.790 324.400,358.000 324.119,358.000 323.776 C 358.000 323.433,358.180 323.264,358.400 323.400 C 358.620 323.536,358.800 323.431,358.800 323.167 C 358.800 322.903,359.340 322.171,360.000 321.540 C 360.660 320.909,361.200 320.207,361.200 319.980 C 361.200 319.753,361.560 319.180,362.000 318.708 C 362.440 318.236,362.800 317.602,362.800 317.301 C 362.800 316.999,362.980 316.864,363.200 317.000 C 363.420 317.136,363.600 316.967,363.600 316.624 C 363.600 316.281,363.780 316.000,364.000 316.000 C 364.220 316.000,364.400 315.719,364.400 315.376 C 364.400 315.007,364.588 314.869,364.862 315.038 C 365.135 315.207,365.216 315.149,365.059 314.896 C 364.914 314.660,365.246 313.932,365.797 313.276 C 366.349 312.621,366.800 311.925,366.800 311.731 C 366.800 311.536,367.160 311.117,367.600 310.800 C 368.040 310.483,368.400 309.943,368.400 309.600 C 368.400 309.257,368.750 308.724,369.179 308.415 C 369.607 308.107,369.881 307.730,369.787 307.579 C 369.693 307.427,369.968 306.899,370.396 306.404 C 370.825 305.910,371.284 305.166,371.415 304.752 C 371.546 304.339,371.822 304.000,372.027 304.000 C 372.232 304.000,372.400 303.730,372.400 303.400 C 372.400 303.070,372.591 302.800,372.824 302.800 C 373.057 302.800,373.145 302.635,373.020 302.432 C 372.895 302.230,373.077 301.780,373.425 301.432 C 373.773 301.085,373.942 300.800,373.801 300.800 C 373.661 300.800,373.918 300.277,374.373 299.638 C 374.828 298.999,375.200 298.272,375.200 298.022 C 375.200 297.771,375.560 297.180,376.000 296.708 C 376.440 296.236,376.800 295.613,376.800 295.325 C 376.800 295.036,376.980 294.800,377.200 294.800 C 377.420 294.800,377.600 294.528,377.600 294.195 C 377.600 293.629,378.336 292.051,378.810 291.600 C 378.926 291.490,379.794 289.780,380.739 287.800 C 381.684 285.820,382.624 283.887,382.828 283.505 C 383.033 283.123,383.200 282.538,383.200 282.205 C 383.200 281.872,383.380 281.600,383.600 281.600 C 383.820 281.600,384.000 281.251,384.000 280.824 C 384.000 280.397,384.180 279.936,384.400 279.800 C 384.620 279.664,384.800 279.203,384.800 278.776 C 384.800 278.349,384.980 278.000,385.200 278.000 C 385.420 278.000,385.600 277.550,385.600 277.000 C 385.600 276.450,385.780 276.000,386.000 276.000 C 386.220 276.000,386.400 275.640,386.400 275.200 C 386.400 274.760,386.541 274.400,386.713 274.400 C 386.885 274.400,387.062 273.961,387.106 273.424 C 387.151 272.887,387.514 271.852,387.914 271.124 C 388.314 270.396,388.875 268.990,389.162 268.000 C 389.448 267.010,389.810 266.020,389.966 265.800 C 390.122 265.580,390.239 265.040,390.225 264.600 C 390.211 264.160,390.339 263.697,390.509 263.571 C 390.844 263.322,391.174 262.153,391.488 260.100 C 391.598 259.385,391.848 258.800,392.044 258.800 C 392.240 258.800,392.400 258.170,392.400 257.400 C 392.400 256.630,392.560 256.000,392.756 256.000 C 393.093 256.000,393.210 255.551,393.832 251.900 C 393.973 251.075,394.248 250.400,394.444 250.400 C 394.640 250.400,394.800 249.691,394.800 248.824 C 394.800 247.957,394.980 247.136,395.200 247.000 C 395.420 246.864,395.600 246.054,395.600 245.200 C 395.600 244.346,395.780 243.536,396.000 243.400 C 396.220 243.264,396.400 242.443,396.400 241.576 C 396.400 240.709,396.564 240.000,396.764 240.000 C 396.965 240.000,397.228 238.965,397.349 237.700 C 397.771 233.292,398.080 231.397,398.439 231.020 C 398.637 230.811,398.800 229.452,398.800 228.000 C 398.800 226.446,399.002 225.158,399.291 224.869 C 400.314 223.846,400.271 181.871,399.246 180.846 C 398.416 180.016,398.126 180.000,384.205 180.000 L 370.010 180.000 369.905 165.100 L 369.800 150.200 364.900 150.088 C 362.205 150.026,359.979 150.116,359.952 150.288 M9.774 264.900 C 9.831 265.175,10.098 265.940,10.368 266.600 C 10.637 267.260,10.958 268.299,11.081 268.908 C 11.203 269.518,11.460 270.114,11.652 270.232 C 11.843 270.350,12.000 270.782,12.000 271.190 C 12.000 271.599,12.178 271.993,12.397 272.067 C 12.615 272.140,12.834 272.695,12.884 273.300 C 12.934 273.905,13.115 274.400,13.287 274.400 C 13.459 274.400,13.600 274.760,13.600 275.200 C 13.600 275.640,13.780 276.000,14.000 276.000 C 14.220 276.000,14.400 276.450,14.400 277.000 C 14.400 277.550,14.580 278.000,14.800 278.000 C 15.020 278.000,15.200 278.349,15.200 278.776 C 15.200 279.203,15.380 279.664,15.600 279.800 C 15.820 279.936,16.000 280.397,16.000 280.824 C 16.000 281.251,16.180 281.600,16.400 281.600 C 16.620 281.600,16.800 281.960,16.800 282.400 C 16.800 282.840,16.980 283.200,17.200 283.200 C 17.420 283.200,17.600 283.532,17.600 283.939 C 17.600 285.373,18.967 287.576,19.135 286.413 C 19.214 285.870,19.081 285.360,18.839 285.280 C 18.598 285.199,18.400 284.698,18.400 284.167 C 18.400 283.635,18.220 283.200,18.000 283.200 C 17.780 283.200,17.600 282.750,17.600 282.200 C 17.600 281.650,17.420 281.200,17.200 281.200 C 16.980 281.200,16.800 280.786,16.800 280.280 C 16.800 279.774,16.644 279.189,16.453 278.980 C 16.263 278.771,15.250 276.350,14.204 273.600 C 13.157 270.850,12.035 268.387,11.710 268.127 C 11.386 267.866,11.230 267.476,11.364 267.259 C 11.498 267.042,11.318 266.575,10.965 266.222 C 10.611 265.869,10.424 265.314,10.549 264.990 C 10.681 264.646,10.545 264.400,10.223 264.400 C 9.919 264.400,9.717 264.625,9.774 264.900 M87.200 276.377 C 86.870 276.559,86.150 276.890,85.600 277.113 C 85.050 277.336,83.970 277.788,83.200 278.118 C 82.430 278.448,78.560 280.021,74.600 281.614 C 70.640 283.207,67.256 284.638,67.079 284.796 C 66.810 285.036,69.195 291.551,71.474 296.800 C 71.808 297.570,72.243 298.605,72.441 299.100 C 72.638 299.595,72.980 300.450,73.200 301.000 C 73.420 301.550,73.756 302.405,73.946 302.900 C 74.477 304.278,75.040 305.618,75.960 307.696 C 76.422 308.738,76.800 309.685,76.800 309.800 C 76.800 309.915,77.178 310.862,77.640 311.904 C 78.102 312.947,78.642 314.205,78.840 314.700 C 79.038 315.195,79.362 316.005,79.560 316.500 C 79.758 316.995,80.274 318.210,80.706 319.200 C 81.139 320.190,81.733 321.675,82.027 322.500 C 82.559 323.995,83.685 324.498,84.620 323.659 C 84.829 323.471,87.160 322.465,89.800 321.422 C 92.440 320.379,95.320 319.202,96.200 318.807 C 97.080 318.412,99.960 317.243,102.600 316.208 C 105.240 315.173,108.030 314.054,108.800 313.722 C 110.236 313.103,111.318 312.662,112.900 312.054 C 113.395 311.863,114.295 311.503,114.900 311.254 C 115.505 311.004,116.405 310.644,116.900 310.454 C 117.395 310.263,118.250 309.918,118.800 309.687 C 119.350 309.456,120.365 309.037,121.055 308.756 C 121.986 308.376,122.230 308.084,122.002 307.622 C 121.832 307.280,121.510 306.550,121.287 306.000 C 121.063 305.450,120.526 304.190,120.094 303.200 C 119.661 302.210,119.058 300.692,118.754 299.827 C 118.012 297.720,116.461 296.242,112.150 293.530 C 106.457 289.949,98.590 283.888,93.092 278.849 C 89.968 275.985,88.802 275.496,87.200 276.377 M94.739 367.124 C 91.337 368.592,90.700 369.483,92.744 369.914 C 93.042 369.977,93.537 370.280,93.845 370.588 C 94.153 370.896,94.764 371.262,95.202 371.401 C 95.641 371.540,96.000 371.822,96.000 372.027 C 96.000 372.232,96.270 372.400,96.600 372.400 C 96.930 372.400,97.200 372.559,97.200 372.753 C 97.200 372.948,97.605 373.213,98.100 373.342 C 98.595 373.471,99.000 373.538,99.000 373.490 C 99.000 373.442,99.568 373.807,100.262 374.302 C 102.031 375.561,102.796 374.515,101.583 372.495 C 101.354 372.113,100.649 370.455,100.017 368.811 C 98.626 365.192,98.966 365.300,94.739 367.124 " stroke="none" fill="#fbdc54" fill-rule="evenodd"></path><path id="path4" d="M151.797 155.519 C 151.579 155.713,150.770 156.099,150.000 156.377 C 149.230 156.655,147.790 157.247,146.800 157.692 C 145.810 158.137,144.640 158.634,144.200 158.797 C 143.152 159.185,141.687 159.772,140.200 160.400 C 139.540 160.679,138.595 161.063,138.100 161.254 C 136.337 161.932,135.375 162.331,133.504 163.160 C 132.462 163.622,131.382 164.004,131.104 164.009 C 130.827 164.014,130.150 164.389,129.600 164.844 C 129.050 165.298,128.780 165.584,129.000 165.480 C 129.220 165.376,131.380 164.523,133.800 163.585 C 136.220 162.647,139.330 161.367,140.710 160.740 C 142.091 160.113,143.450 159.600,143.730 159.600 C 144.011 159.600,144.411 159.447,144.620 159.260 C 144.829 159.072,146.260 158.427,147.800 157.826 C 149.340 157.225,151.209 156.446,151.953 156.095 C 153.703 155.271,153.604 155.128,156.794 163.080 C 159.297 169.319,160.337 171.387,159.773 169.000 C 159.617 168.340,159.363 167.620,159.208 167.400 C 159.053 167.180,158.613 166.190,158.230 165.200 C 157.848 164.210,157.261 162.770,156.926 162.000 C 156.592 161.230,156.157 160.195,155.959 159.700 C 155.095 157.534,154.688 156.561,154.413 156.000 C 154.074 155.308,152.384 154.997,151.797 155.519 M98.495 177.403 C 97.118 177.933,95.318 178.663,94.495 179.024 C 93.673 179.386,92.640 179.818,92.200 179.985 C 91.760 180.152,90.766 180.562,89.991 180.895 C 89.217 181.227,86.427 182.350,83.791 183.390 C 81.156 184.429,78.050 185.711,76.888 186.240 C 75.727 186.768,74.548 187.200,74.268 187.200 C 73.989 187.200,73.589 187.353,73.380 187.540 C 73.171 187.728,71.740 188.373,70.200 188.974 C 68.660 189.575,66.770 190.341,66.000 190.674 C 65.230 191.008,64.195 191.443,63.700 191.641 C 63.205 191.838,62.305 192.204,61.700 192.454 C 61.095 192.703,60.195 193.063,59.700 193.254 C 58.080 193.877,57.022 194.309,55.600 194.926 C 54.830 195.261,52.400 196.260,50.200 197.147 C 40.927 200.885,33.486 203.981,33.281 204.186 C 33.097 204.369,37.780 216.428,40.509 222.800 C 40.933 223.790,41.442 225.005,41.640 225.500 C 41.838 225.995,42.162 226.805,42.359 227.300 C 42.557 227.795,42.992 228.830,43.325 229.600 C 43.659 230.370,44.604 232.710,45.425 234.800 C 46.247 236.890,47.072 238.771,47.259 238.980 C 47.447 239.189,47.600 239.596,47.600 239.884 C 47.600 240.173,47.990 241.238,48.466 242.251 C 49.538 244.532,50.691 243.812,37.200 249.292 C 31.370 251.660,26.150 253.802,25.600 254.052 C 25.050 254.302,24.240 254.639,23.800 254.800 C 22.837 255.153,21.484 255.708,19.600 256.526 C 18.830 256.859,16.940 257.625,15.400 258.226 C 13.860 258.827,12.429 259.472,12.220 259.660 C 12.011 259.847,11.561 260.004,11.220 260.009 C 10.057 260.026,8.538 261.494,9.100 262.058 C 9.375 262.334,9.600 262.865,9.600 263.237 C 9.600 263.610,9.870 264.018,10.200 264.145 C 10.530 264.271,10.800 264.741,10.800 265.187 C 10.800 265.634,10.980 266.000,11.200 266.000 C 11.420 266.000,11.600 266.272,11.600 266.605 C 11.600 266.938,11.759 267.523,11.953 267.905 C 12.148 268.287,12.490 269.050,12.713 269.600 C 12.937 270.150,13.471 271.410,13.900 272.400 C 14.329 273.390,15.178 275.550,15.787 277.200 C 17.137 280.858,17.588 281.992,18.047 282.895 C 18.241 283.277,18.400 283.952,18.400 284.395 C 18.400 284.838,18.580 285.200,18.800 285.200 C 19.020 285.200,19.200 285.650,19.200 286.200 C 19.200 286.750,19.380 287.200,19.600 287.200 C 19.820 287.200,20.000 287.762,20.000 288.449 C 20.000 289.480,20.099 289.616,20.566 289.228 C 21.041 288.834,20.442 287.059,16.801 278.079 C 10.940 263.622,10.690 263.036,10.280 262.752 C 9.764 262.396,10.095 261.140,10.800 260.776 C 11.681 260.322,13.900 259.380,16.400 258.400 C 17.610 257.926,19.230 257.263,20.000 256.928 C 20.770 256.593,21.805 256.157,22.300 255.959 C 22.795 255.762,23.650 255.420,24.200 255.200 C 24.750 254.980,25.605 254.638,26.100 254.441 C 26.595 254.243,27.630 253.811,28.400 253.481 C 29.170 253.150,34.120 251.133,39.400 248.999 C 44.680 246.864,49.208 244.948,49.462 244.741 C 49.850 244.425,45.452 232.737,41.997 224.900 C 41.498 223.769,40.786 222.042,40.387 221.000 C 40.219 220.560,39.808 219.570,39.473 218.800 C 39.138 218.030,38.295 215.960,37.600 214.200 C 36.905 212.440,36.100 210.460,35.812 209.800 C 33.954 205.546,33.633 204.000,34.605 204.000 C 34.938 204.000,35.523 203.841,35.905 203.647 C 36.287 203.452,37.050 203.111,37.600 202.887 C 38.150 202.664,39.230 202.210,40.000 201.879 C 40.770 201.547,45.720 199.531,51.000 197.398 C 56.280 195.265,61.230 193.247,62.000 192.913 C 62.770 192.578,63.940 192.071,64.600 191.785 C 65.260 191.499,67.690 190.516,70.000 189.600 C 72.310 188.684,74.830 187.661,75.600 187.326 C 76.370 186.992,77.405 186.557,77.900 186.359 C 78.395 186.162,79.205 185.838,79.700 185.641 C 80.195 185.443,81.230 185.011,82.000 184.681 C 82.770 184.351,87.260 182.522,91.978 180.616 C 96.696 178.711,100.836 176.988,101.178 176.788 C 102.295 176.134,101.051 176.420,98.495 177.403 M163.243 178.600 C 163.253 178.820,164.741 182.600,166.550 187.000 C 170.290 196.099,170.034 195.865,174.200 194.011 C 175.300 193.521,176.605 192.958,177.100 192.760 C 177.595 192.562,178.405 192.238,178.900 192.041 C 179.395 191.843,180.430 191.408,181.200 191.074 C 181.970 190.741,183.856 189.967,185.391 189.355 C 188.935 187.942,191.150 186.836,190.478 186.816 C 190.191 186.807,189.186 187.151,188.246 187.579 C 187.305 188.008,185.560 188.742,184.368 189.210 C 183.175 189.679,181.570 190.337,180.800 190.672 C 178.952 191.477,177.580 192.041,176.600 192.400 C 175.780 192.700,174.294 193.304,172.700 193.984 C 170.394 194.968,170.480 195.076,167.240 187.200 C 164.349 180.175,163.201 177.705,163.243 178.600 M219.179 200.800 C 219.400 201.350,220.500 204.140,221.623 207.000 C 222.747 209.860,223.940 212.830,224.274 213.600 C 224.608 214.370,225.019 215.360,225.187 215.800 C 225.355 216.240,225.721 217.140,226.000 217.800 C 226.279 218.460,226.645 219.360,226.813 219.800 C 226.981 220.240,227.392 221.230,227.726 222.000 C 228.061 222.770,229.084 225.290,230.000 227.600 C 230.916 229.910,231.899 232.340,232.185 233.000 C 232.471 233.660,232.979 234.830,233.314 235.600 C 233.648 236.370,235.946 242.003,238.420 248.119 L 242.918 259.238 244.146 258.968 C 244.821 258.820,245.650 258.562,245.987 258.396 C 246.324 258.229,247.050 257.911,247.600 257.687 C 248.150 257.464,249.230 257.008,250.000 256.673 C 250.770 256.338,252.840 255.495,254.600 254.800 C 256.360 254.105,258.430 253.262,259.200 252.927 C 259.970 252.592,260.960 252.181,261.400 252.013 C 261.840 251.845,262.650 251.504,263.200 251.257 C 268.263 248.977,283.017 243.263,283.232 243.498 C 283.383 243.664,284.626 246.590,285.993 250.000 C 288.336 255.846,288.773 256.904,290.167 260.100 C 290.479 260.815,291.664 263.740,292.800 266.600 C 293.936 269.460,295.140 272.430,295.474 273.200 C 295.808 273.970,296.243 275.005,296.441 275.500 C 296.638 275.995,296.962 276.805,297.159 277.300 C 297.357 277.795,297.789 278.830,298.119 279.600 C 298.449 280.370,300.644 285.770,302.996 291.600 C 305.348 297.430,307.545 302.830,307.877 303.600 C 308.210 304.370,308.643 305.405,308.841 305.900 C 309.038 306.395,309.380 307.250,309.600 307.800 C 309.820 308.350,310.162 309.205,310.359 309.700 C 310.557 310.195,310.991 311.230,311.324 312.000 C 312.530 314.790,315.600 322.572,315.600 322.839 C 315.600 322.990,314.835 323.417,313.900 323.789 C 312.965 324.161,311.570 324.739,310.800 325.074 C 310.030 325.408,308.995 325.843,308.500 326.041 C 308.005 326.238,307.150 326.580,306.600 326.800 C 306.050 327.020,305.150 327.380,304.600 327.600 C 304.050 327.820,303.195 328.162,302.700 328.359 C 302.205 328.557,301.170 328.989,300.400 329.319 C 298.883 329.970,281.242 337.122,278.034 338.387 L 276.069 339.161 275.001 336.480 C 274.413 335.006,273.659 333.170,273.326 332.400 C 272.508 330.516,271.953 329.163,271.600 328.200 C 271.264 327.281,270.739 325.999,269.881 324.000 C 269.550 323.230,267.537 318.280,265.406 313.000 C 263.275 307.720,261.277 302.877,260.966 302.239 C 260.655 301.600,260.400 300.844,260.400 300.558 C 260.400 298.931,255.553 300.440,241.800 306.349 C 241.360 306.538,240.550 306.879,240.000 307.106 C 239.450 307.333,238.370 307.792,237.600 308.127 C 236.830 308.462,234.760 309.305,233.000 310.000 C 231.240 310.695,229.170 311.538,228.400 311.873 C 227.630 312.208,226.640 312.625,226.200 312.801 C 225.760 312.977,224.547 313.498,223.504 313.960 C 222.462 314.422,221.467 314.800,221.293 314.800 C 221.120 314.800,220.593 315.069,220.123 315.399 L 219.268 315.998 221.469 321.499 C 222.680 324.524,223.943 327.630,224.276 328.400 C 224.609 329.170,225.019 330.160,225.187 330.600 C 225.355 331.040,225.697 331.895,225.946 332.500 C 226.196 333.105,226.562 334.005,226.759 334.500 C 226.957 334.995,227.389 336.030,227.719 336.800 C 229.287 340.457,235.200 355.275,235.200 355.548 C 235.200 355.718,234.255 356.264,233.100 356.762 C 230.663 357.812,230.179 358.011,226.300 359.559 C 225.805 359.757,224.770 360.192,224.000 360.526 C 223.230 360.860,219.900 362.221,216.600 363.550 C 213.300 364.879,207.720 367.161,204.200 368.621 C 195.597 372.190,195.984 372.152,194.846 369.533 C 194.337 368.360,193.682 366.860,193.392 366.200 C 193.102 365.540,192.295 363.560,191.600 361.800 C 190.905 360.040,190.062 357.970,189.727 357.200 C 189.392 356.430,188.957 355.395,188.759 354.900 C 188.562 354.405,188.220 353.550,188.000 353.000 C 187.780 352.450,187.438 351.595,187.241 351.100 C 187.043 350.605,186.612 349.570,186.282 348.800 C 185.952 348.030,184.380 344.160,182.788 340.200 C 181.197 336.240,179.687 332.775,179.433 332.500 C 179.031 332.065,169.582 335.558,161.300 339.204 C 160.805 339.422,159.995 339.762,159.500 339.959 C 159.005 340.157,157.970 340.593,157.200 340.928 C 156.430 341.263,154.810 341.926,153.600 342.400 C 152.390 342.874,150.770 343.537,150.000 343.872 C 148.337 344.596,146.898 345.193,145.800 345.614 C 145.360 345.782,144.147 346.298,143.104 346.760 C 142.062 347.222,140.996 347.600,140.736 347.600 C 140.476 347.600,139.949 347.884,139.565 348.232 C 138.813 348.912,138.792 348.816,140.679 353.200 C 141.010 353.970,141.443 355.005,141.641 355.500 C 141.838 355.995,142.180 356.850,142.400 357.400 C 142.620 357.950,142.962 358.805,143.159 359.300 C 143.357 359.795,143.792 360.830,144.125 361.600 C 144.459 362.370,145.404 364.710,146.225 366.800 C 147.047 368.890,147.872 370.771,148.059 370.980 C 148.247 371.189,148.400 371.596,148.400 371.884 C 148.400 372.173,148.752 373.172,149.181 374.104 C 152.874 382.120,155.121 388.605,154.310 388.908 C 153.858 389.077,152.838 389.501,152.044 389.849 C 151.250 390.197,150.240 390.625,149.800 390.800 C 149.360 390.975,148.343 391.407,147.540 391.759 C 146.736 392.112,145.601 392.400,145.016 392.400 C 144.409 392.400,144.059 392.572,144.200 392.800 C 144.486 393.263,146.800 393.350,146.800 392.898 C 146.800 392.731,147.385 392.356,148.100 392.064 C 148.815 391.772,149.805 391.368,150.300 391.166 C 150.795 390.965,151.605 390.635,152.100 390.434 C 152.595 390.232,153.585 389.828,154.300 389.536 C 155.643 388.987,155.854 388.488,155.247 387.295 C 154.919 386.650,154.554 385.787,153.641 383.500 C 153.443 383.005,153.011 381.970,152.680 381.200 C 152.349 380.430,150.153 375.030,147.800 369.200 C 145.447 363.370,143.251 357.970,142.920 357.200 C 142.069 355.219,141.539 353.925,141.200 353.000 C 141.039 352.560,140.710 351.750,140.469 351.200 C 139.460 348.894,139.552 348.775,143.600 347.138 C 145.690 346.293,147.760 345.439,148.200 345.241 C 150.235 344.326,151.973 343.595,154.000 342.800 C 155.210 342.326,156.830 341.663,157.600 341.328 C 158.370 340.993,159.360 340.581,159.800 340.413 C 160.805 340.029,162.278 339.440,163.700 338.854 C 164.305 338.604,165.205 338.238,165.700 338.041 C 166.195 337.843,167.230 337.409,168.000 337.075 C 173.399 334.735,178.904 332.750,179.168 333.047 C 179.340 333.241,179.973 334.660,180.574 336.200 C 181.175 337.740,181.908 339.540,182.201 340.200 C 182.495 340.860,183.847 344.190,185.206 347.600 C 187.539 353.453,187.983 354.529,189.368 357.700 C 189.680 358.415,190.505 360.440,191.200 362.200 C 191.895 363.960,192.738 366.030,193.073 366.800 C 193.408 367.570,193.828 368.560,194.007 369.000 C 195.485 372.631,195.325 372.435,196.587 372.158 C 197.240 372.015,198.050 371.762,198.387 371.596 C 199.069 371.259,200.973 370.456,202.200 369.987 C 202.640 369.819,203.630 369.410,204.400 369.079 C 205.170 368.747,210.120 366.731,215.400 364.598 C 220.680 362.465,225.630 360.450,226.400 360.119 C 227.170 359.789,228.205 359.357,228.700 359.159 C 229.195 358.962,230.005 358.639,230.500 358.441 C 233.948 357.068,236.052 355.914,235.888 355.487 C 235.337 354.059,227.031 333.588,226.520 332.400 C 225.900 330.957,225.455 329.862,224.854 328.300 C 224.391 327.098,223.811 325.697,223.073 324.000 C 219.637 316.095,219.628 315.998,222.287 315.001 C 223.339 314.606,225.010 313.931,226.000 313.502 C 226.990 313.072,228.160 312.577,228.600 312.401 C 229.040 312.225,230.030 311.807,230.800 311.472 C 231.570 311.137,233.190 310.474,234.400 310.000 C 235.610 309.526,237.230 308.863,238.000 308.528 C 238.770 308.193,239.805 307.757,240.300 307.559 C 240.795 307.362,241.650 307.020,242.200 306.800 C 242.750 306.580,243.650 306.220,244.200 306.000 C 244.750 305.780,245.605 305.438,246.100 305.241 C 246.595 305.043,247.630 304.609,248.400 304.276 C 257.195 300.474,260.000 299.693,260.000 301.048 C 260.000 301.358,260.159 301.923,260.353 302.305 C 260.548 302.687,260.889 303.450,261.113 304.000 C 261.336 304.550,261.789 305.630,262.119 306.400 C 262.450 307.170,264.465 312.120,266.598 317.400 C 268.731 322.680,270.747 327.630,271.079 328.400 C 271.410 329.170,271.819 330.160,271.987 330.600 C 272.397 331.671,272.990 333.103,273.726 334.800 C 274.061 335.570,274.642 336.974,275.019 337.920 C 275.730 339.707,276.602 339.907,278.787 338.783 C 279.780 338.272,281.634 337.507,292.800 333.000 C 298.630 330.647,304.030 328.451,304.800 328.120 C 305.570 327.789,306.605 327.357,307.100 327.159 C 310.255 325.900,309.747 326.112,314.106 324.233 L 316.412 323.239 315.662 321.319 C 314.402 318.090,311.570 311.081,310.926 309.600 C 310.592 308.830,310.181 307.840,310.013 307.400 C 309.845 306.960,309.479 306.060,309.200 305.400 C 308.921 304.740,308.555 303.840,308.387 303.400 C 308.219 302.960,307.807 301.970,307.472 301.200 C 307.137 300.430,306.474 298.810,306.000 297.600 C 305.526 296.390,304.863 294.770,304.528 294.000 C 303.798 292.323,303.202 290.886,302.787 289.800 C 302.619 289.360,302.212 288.370,301.883 287.600 C 301.554 286.830,300.265 283.595,299.019 280.411 C 297.773 277.228,296.476 273.988,296.136 273.211 C 295.796 272.435,295.375 271.440,295.199 271.000 C 295.023 270.560,294.502 269.347,294.040 268.304 C 293.578 267.262,293.200 266.315,293.200 266.200 C 293.200 266.085,292.822 265.138,292.360 264.096 C 291.898 263.053,291.382 261.840,291.214 261.400 C 291.045 260.960,290.703 260.105,290.454 259.500 C 290.204 258.895,289.844 257.995,289.654 257.500 C 288.817 255.327,288.002 253.345,286.900 250.800 C 286.471 249.810,285.607 247.676,284.980 246.057 C 283.471 242.162,283.616 242.171,276.000 245.474 C 275.230 245.808,274.240 246.219,273.800 246.387 C 272.686 246.813,271.246 247.411,269.592 248.134 C 268.817 248.473,266.387 249.460,264.192 250.328 C 259.772 252.075,247.679 256.985,245.800 257.796 C 243.508 258.785,243.381 258.771,242.838 257.457 C 242.552 256.766,241.977 255.437,241.559 254.504 C 241.142 253.572,240.800 252.715,240.800 252.600 C 240.800 252.485,240.422 251.538,239.960 250.496 C 239.498 249.453,238.958 248.195,238.760 247.700 C 238.003 245.808,237.588 244.769,237.241 243.900 C 237.043 243.405,236.611 242.370,236.280 241.600 C 235.949 240.830,233.753 235.430,231.400 229.600 C 229.047 223.770,226.851 218.370,226.520 217.600 C 226.189 216.830,225.781 215.840,225.613 215.400 C 225.445 214.960,225.079 214.060,224.800 213.400 C 224.521 212.740,224.155 211.840,223.987 211.400 C 223.819 210.960,223.410 209.970,223.077 209.200 C 221.702 206.015,220.399 202.634,220.391 202.231 C 220.386 201.994,220.021 201.350,219.580 200.800 L 218.778 199.800 219.179 200.800 M187.986 239.551 C 188.168 240.184,188.623 241.399,188.999 242.251 C 189.910 244.319,190.836 246.568,191.613 248.600 C 191.781 249.040,192.192 250.030,192.526 250.800 C 192.861 251.570,193.446 253.010,193.827 254.000 C 194.208 254.990,194.673 255.971,194.860 256.180 C 195.047 256.389,195.200 256.803,195.200 257.099 C 195.200 257.396,195.560 258.384,196.000 259.294 C 196.440 260.205,196.800 261.092,196.800 261.265 C 196.800 261.438,197.313 262.709,197.940 264.090 C 202.274 273.635,202.834 276.328,200.495 276.387 C 200.217 276.394,199.677 276.559,199.295 276.753 C 198.650 277.081,197.787 277.446,195.500 278.359 C 195.005 278.557,193.970 278.989,193.200 279.319 C 192.430 279.649,187.030 281.844,181.200 284.196 C 175.370 286.548,169.970 288.745,169.200 289.077 C 168.430 289.410,167.350 289.864,166.800 290.087 C 166.250 290.311,165.487 290.652,165.105 290.847 C 163.645 291.590,162.905 291.246,162.211 289.500 C 161.839 288.565,161.261 287.170,160.926 286.400 C 160.592 285.630,160.157 284.595,159.959 284.100 C 159.762 283.605,159.438 282.795,159.241 282.300 C 159.043 281.805,158.607 280.770,158.272 280.000 C 157.937 279.230,157.274 277.610,156.800 276.400 C 156.326 275.190,155.663 273.570,155.328 272.800 C 154.993 272.030,154.557 270.995,154.359 270.500 C 154.162 270.005,153.820 269.150,153.600 268.600 C 153.380 268.050,153.038 267.195,152.841 266.700 C 152.643 266.205,152.211 265.170,151.880 264.400 C 149.883 259.749,147.201 252.839,147.209 252.361 C 147.214 252.004,150.819 250.356,157.109 247.836 C 162.549 245.655,167.810 243.522,168.800 243.096 C 169.790 242.669,170.960 242.182,171.400 242.014 C 172.782 241.484,174.573 240.721,175.295 240.353 C 175.677 240.159,176.262 240.000,176.595 240.000 C 176.928 240.000,177.200 239.833,177.200 239.628 C 177.200 239.198,175.629 239.594,173.349 240.599 C 172.497 240.974,171.440 241.425,171.000 241.601 C 170.560 241.777,169.347 242.298,168.304 242.760 C 167.262 243.222,166.173 243.600,165.884 243.600 C 165.596 243.600,165.189 243.752,164.980 243.938 C 164.771 244.123,163.520 244.691,162.200 245.200 C 160.880 245.709,159.629 246.277,159.420 246.462 C 159.211 246.648,158.811 246.800,158.530 246.800 C 158.250 246.800,156.891 247.309,155.510 247.932 C 154.130 248.554,151.516 249.654,149.703 250.375 C 145.997 251.850,146.030 251.764,147.697 255.600 C 148.128 256.590,148.623 257.760,148.799 258.200 C 148.975 258.640,149.389 259.630,149.719 260.400 C 150.050 261.170,152.065 266.120,154.198 271.400 C 156.331 276.680,158.347 281.630,158.679 282.400 C 159.010 283.170,159.419 284.160,159.587 284.600 C 159.755 285.040,160.097 285.895,160.346 286.500 C 160.596 287.105,160.965 288.005,161.166 288.500 C 162.693 292.249,162.521 292.036,163.787 291.758 C 164.440 291.615,165.250 291.362,165.587 291.196 C 165.924 291.029,166.650 290.716,167.200 290.500 C 168.608 289.947,169.975 289.379,171.600 288.674 C 172.370 288.340,175.340 287.138,178.200 286.004 C 181.060 284.870,183.923 283.685,184.561 283.371 C 185.200 283.057,185.877 282.800,186.066 282.800 C 186.254 282.800,187.172 282.449,188.104 282.020 C 189.037 281.591,191.870 280.419,194.400 279.416 C 196.930 278.412,199.313 277.413,199.695 277.196 C 200.077 276.978,200.617 276.796,200.895 276.791 C 202.041 276.771,203.304 275.362,202.891 274.565 C 202.672 274.144,202.311 273.350,202.087 272.800 C 201.864 272.250,201.411 271.170,201.080 270.400 C 200.749 269.630,198.553 264.230,196.200 258.400 C 193.847 252.570,191.651 247.170,191.320 246.400 C 190.551 244.610,189.973 243.210,189.587 242.200 C 188.358 238.982,187.340 237.299,187.986 239.551 M101.200 270.040 C 95.042 272.577,93.701 273.142,91.704 274.038 C 90.772 274.457,89.824 274.800,89.599 274.800 C 89.374 274.800,88.877 274.965,88.495 275.166 C 87.557 275.661,85.456 276.559,82.800 277.600 C 81.590 278.074,79.970 278.737,79.200 279.072 C 78.430 279.407,77.440 279.825,77.000 280.000 C 76.560 280.175,75.570 280.592,74.800 280.925 C 74.030 281.259,71.735 282.196,69.700 283.008 C 67.665 283.820,66.000 284.542,66.000 284.614 C 66.000 284.928,73.893 304.569,75.881 309.200 C 76.211 309.970,76.619 310.960,76.787 311.400 C 76.955 311.840,77.321 312.740,77.600 313.400 C 77.879 314.060,78.245 314.960,78.414 315.400 C 78.582 315.840,79.072 317.010,79.502 318.000 C 79.931 318.990,80.713 320.925,81.239 322.300 C 82.402 325.340,82.346 325.338,88.800 322.528 C 89.570 322.193,90.605 321.757,91.100 321.559 C 92.366 321.054,94.059 320.354,95.000 319.947 C 95.440 319.756,101.481 317.306,108.424 314.500 C 123.574 308.380,123.175 308.602,122.310 306.766 C 121.955 306.015,120.915 303.510,119.997 301.200 C 119.079 298.890,118.003 296.280,117.606 295.400 C 117.209 294.520,114.960 289.030,112.607 283.200 C 110.254 277.370,108.075 272.077,107.765 271.439 C 107.454 270.800,107.200 270.063,107.200 269.801 C 107.200 268.051,105.901 268.103,101.200 270.040 M106.425 269.624 C 106.746 270.280,107.559 272.213,108.013 273.400 C 108.181 273.840,108.607 274.875,108.959 275.700 C 109.312 276.525,109.888 277.875,110.241 278.700 C 110.593 279.525,111.043 280.605,111.241 281.100 C 111.438 281.595,111.780 282.450,112.000 283.000 C 112.220 283.550,112.556 284.405,112.746 284.900 C 113.398 286.591,113.893 287.800,114.345 288.800 C 114.593 289.350,116.483 293.952,118.544 299.027 L 122.291 308.253 121.045 308.767 C 120.360 309.049,119.260 309.518,118.600 309.808 C 117.940 310.098,115.960 310.905,114.200 311.600 C 112.440 312.295,110.370 313.138,109.600 313.473 C 108.158 314.100,107.065 314.545,105.500 315.145 C 105.005 315.334,103.966 315.762,103.191 316.095 C 102.417 316.427,99.627 317.550,96.991 318.590 C 94.356 319.629,91.250 320.911,90.088 321.440 C 88.927 321.968,87.835 322.400,87.663 322.400 C 87.491 322.400,86.605 322.760,85.694 323.200 C 82.792 324.602,82.693 324.526,80.608 319.300 C 79.576 316.715,78.459 313.970,78.125 313.200 C 77.791 312.430,77.375 311.440,77.200 311.000 C 77.025 310.560,76.608 309.570,76.273 308.800 C 75.938 308.030,75.095 305.960,74.400 304.200 C 73.705 302.440,72.862 300.370,72.527 299.600 C 72.192 298.830,71.757 297.795,71.559 297.300 C 71.362 296.805,71.038 295.995,70.841 295.500 C 70.643 295.005,70.208 293.970,69.873 293.200 C 68.491 290.020,66.801 285.547,66.809 285.090 C 66.813 284.820,71.268 282.817,76.709 280.638 C 82.149 278.459,87.309 276.344,88.175 275.938 C 89.041 275.532,89.898 275.200,90.079 275.200 C 90.261 275.200,91.262 274.822,92.304 274.360 C 93.347 273.898,94.560 273.382,95.000 273.214 C 95.440 273.045,96.295 272.703,96.900 272.454 C 97.505 272.204,98.405 271.838,98.900 271.640 C 100.066 271.173,103.121 269.876,104.400 269.304 C 105.586 268.774,106.044 268.846,106.425 269.624 M20.800 290.800 C 20.800 291.240,20.980 291.600,21.200 291.600 C 21.420 291.600,21.600 291.960,21.600 292.400 C 21.600 292.840,21.780 293.200,22.000 293.200 C 22.220 293.200,22.400 293.478,22.400 293.817 C 22.400 294.156,22.760 294.820,23.200 295.292 C 23.640 295.764,24.000 296.387,24.000 296.675 C 24.000 296.964,24.180 297.200,24.400 297.200 C 24.620 297.200,24.800 296.930,24.800 296.600 C 24.800 296.270,24.620 296.000,24.400 296.000 C 24.180 296.000,24.000 295.730,24.000 295.400 C 24.000 295.070,23.820 294.800,23.600 294.800 C 23.380 294.800,23.200 294.440,23.200 294.000 C 23.200 293.560,23.020 293.200,22.800 293.200 C 22.580 293.200,22.400 292.840,22.400 292.400 C 22.400 291.960,22.220 291.600,22.000 291.600 C 21.780 291.600,21.600 291.240,21.600 290.800 C 21.600 290.360,21.420 290.000,21.200 290.000 C 20.980 290.000,20.800 290.360,20.800 290.800 M24.800 297.939 C 24.800 299.008,26.582 301.552,27.022 301.111 C 27.264 300.870,26.260 298.807,25.900 298.803 C 25.735 298.801,25.600 298.530,25.600 298.200 C 25.600 297.870,25.420 297.600,25.200 297.600 C 24.980 297.600,24.800 297.752,24.800 297.939 M26.892 302.075 C 27.139 302.817,28.000 302.940,28.000 302.233 C 28.000 301.885,27.715 301.600,27.367 301.600 C 27.018 301.600,26.805 301.814,26.892 302.075 M27.600 303.380 C 27.600 303.479,28.140 304.360,28.800 305.338 C 29.460 306.316,30.000 307.238,30.000 307.387 C 30.000 307.860,31.123 308.800,31.671 308.787 C 32.055 308.778,32.026 308.641,31.566 308.287 C 31.218 308.019,30.809 307.305,30.659 306.700 C 30.508 306.095,30.110 305.600,29.775 305.600 C 29.439 305.600,29.201 305.375,29.246 305.100 C 29.377 304.284,28.756 303.200,28.157 303.200 C 27.851 303.200,27.600 303.281,27.600 303.380 M31.600 309.629 C 31.600 310.180,32.772 311.361,33.047 311.087 C 33.306 310.827,32.320 309.200,31.904 309.200 C 31.737 309.200,31.600 309.393,31.600 309.629 M33.200 312.029 C 33.200 312.580,34.372 313.761,34.647 313.487 C 34.906 313.227,33.920 311.600,33.504 311.600 C 33.337 311.600,33.200 311.793,33.200 312.029 M34.800 314.512 C 34.800 314.793,35.160 315.283,35.600 315.600 C 36.040 315.917,36.400 316.380,36.400 316.629 C 36.400 316.878,36.940 317.646,37.600 318.337 C 38.260 319.028,38.800 319.748,38.800 319.937 C 38.800 320.126,39.340 320.846,40.000 321.537 C 40.660 322.228,41.200 322.883,41.200 322.993 C 41.200 323.104,41.549 323.600,41.976 324.097 C 42.402 324.594,43.122 325.433,43.576 325.961 C 44.029 326.490,44.400 327.063,44.400 327.235 C 44.400 327.592,48.232 331.600,48.574 331.600 C 49.236 331.600,48.583 330.583,46.800 328.838 C 45.700 327.761,44.800 326.687,44.800 326.453 C 44.800 326.219,44.170 325.397,43.400 324.627 C 42.630 323.857,42.000 323.023,42.000 322.774 C 42.000 322.525,41.460 321.817,40.800 321.200 C 40.140 320.583,39.600 319.881,39.600 319.640 C 39.600 319.398,39.420 319.200,39.200 319.200 C 38.980 319.200,38.800 318.970,38.800 318.688 C 38.800 318.407,38.440 317.917,38.000 317.600 C 37.560 317.283,37.200 316.793,37.200 316.512 C 37.200 316.230,37.020 316.000,36.800 316.000 C 36.580 316.000,36.400 315.807,36.400 315.571 C 36.400 315.122,35.421 314.000,35.029 314.000 C 34.903 314.000,34.800 314.230,34.800 314.512 M49.013 332.378 C 48.829 332.677,51.200 335.173,57.966 341.800 C 58.190 342.020,60.153 344.024,62.327 346.254 C 65.766 349.780,68.000 351.666,68.000 351.042 C 68.000 350.533,49.209 332.062,49.013 332.378 M68.400 351.426 C 68.400 351.779,72.413 355.600,72.784 355.600 C 72.966 355.600,73.695 356.118,74.404 356.751 C 76.327 358.469,76.744 358.800,76.987 358.800 C 77.108 358.800,77.772 359.340,78.463 360.000 C 79.154 360.660,79.922 361.200,80.171 361.200 C 80.420 361.200,80.883 361.560,81.200 362.000 C 81.517 362.440,82.007 362.800,82.288 362.800 C 82.570 362.800,82.800 362.980,82.800 363.200 C 82.800 363.420,83.030 363.600,83.312 363.600 C 83.593 363.600,84.083 363.960,84.400 364.400 C 84.717 364.840,85.257 365.200,85.600 365.200 C 85.943 365.200,86.483 365.560,86.800 366.000 C 87.117 366.440,87.657 366.800,88.000 366.800 C 88.343 366.800,88.883 367.160,89.200 367.600 C 89.804 368.438,90.800 368.687,90.800 368.000 C 90.800 367.780,90.570 367.600,90.288 367.600 C 90.007 367.600,89.517 367.240,89.200 366.800 C 88.883 366.360,88.471 366.000,88.284 366.000 C 87.841 366.000,84.240 363.544,84.067 363.123 C 83.993 362.945,83.718 362.800,83.455 362.800 C 83.192 362.800,82.717 362.440,82.400 362.000 C 82.083 361.560,81.593 361.200,81.312 361.200 C 81.030 361.200,80.800 361.020,80.800 360.800 C 80.800 360.580,80.602 360.400,80.360 360.400 C 80.119 360.400,79.417 359.860,78.800 359.200 C 78.183 358.540,77.475 358.000,77.226 358.000 C 76.977 358.000,76.143 357.370,75.373 356.600 C 74.603 355.830,73.814 355.200,73.619 355.200 C 73.425 355.200,72.536 354.525,71.645 353.700 C 68.934 351.190,68.400 350.815,68.400 351.426 M97.800 365.200 C 97.664 365.420,97.301 365.600,96.994 365.600 C 96.347 365.600,91.110 368.043,91.316 368.249 C 91.392 368.325,92.941 367.760,94.759 366.994 C 96.576 366.227,98.221 365.600,98.413 365.600 C 98.986 365.600,102.000 372.740,102.000 374.098 C 102.000 374.973,102.550 375.568,104.100 376.368 C 104.705 376.680,105.200 377.085,105.200 377.268 C 105.200 377.450,105.560 377.600,106.000 377.600 C 106.440 377.600,106.800 377.780,106.800 378.000 C 106.800 378.220,107.160 378.400,107.600 378.400 C 108.040 378.400,108.400 378.580,108.400 378.800 C 108.400 379.020,108.745 379.200,109.167 379.200 C 109.588 379.200,109.993 379.335,110.067 379.500 C 110.259 379.932,113.572 381.600,114.238 381.600 C 114.547 381.600,114.800 381.780,114.800 382.000 C 114.800 382.220,115.160 382.400,115.600 382.400 C 116.040 382.400,116.400 382.220,116.400 382.000 C 116.400 381.780,116.040 381.600,115.600 381.600 C 115.160 381.600,114.800 381.420,114.800 381.200 C 114.800 380.980,114.440 380.800,114.000 380.800 C 113.560 380.800,113.200 380.620,113.200 380.400 C 113.200 380.180,112.840 380.000,112.400 380.000 C 111.960 380.000,111.600 379.820,111.600 379.600 C 111.600 379.380,111.240 379.200,110.800 379.200 C 110.360 379.200,110.000 379.020,110.000 378.800 C 110.000 378.580,109.640 378.400,109.200 378.400 C 108.760 378.400,108.400 378.220,108.400 378.000 C 108.400 377.780,108.040 377.600,107.600 377.600 C 107.160 377.600,106.800 377.420,106.800 377.200 C 106.800 376.980,106.440 376.800,106.000 376.800 C 105.560 376.800,105.200 376.620,105.200 376.400 C 105.200 376.180,105.012 376.000,104.783 376.000 C 103.869 376.000,103.152 374.787,101.176 369.900 C 99.266 365.177,98.486 364.091,97.800 365.200 M116.800 382.800 C 116.800 383.020,117.070 383.200,117.400 383.200 C 117.730 383.200,118.000 383.020,118.000 382.800 C 118.000 382.580,117.730 382.400,117.400 382.400 C 117.070 382.400,116.800 382.580,116.800 382.800 M118.400 383.600 C 118.400 383.820,118.760 384.000,119.200 384.000 C 119.640 384.000,120.000 384.180,120.000 384.400 C 120.000 384.620,120.272 384.800,120.605 384.800 C 120.938 384.800,121.564 385.020,121.995 385.290 C 122.615 385.677,122.883 385.677,123.270 385.290 C 123.657 384.903,123.532 384.800,122.680 384.800 C 122.086 384.800,121.600 384.620,121.600 384.400 C 121.600 384.180,121.240 384.000,120.800 384.000 C 120.360 384.000,120.000 383.820,120.000 383.600 C 120.000 383.380,119.640 383.200,119.200 383.200 C 118.760 383.200,118.400 383.380,118.400 383.600 M124.000 386.000 C 124.000 386.220,124.272 386.400,124.605 386.400 C 124.938 386.400,125.523 386.559,125.905 386.753 C 128.413 388.029,128.820 388.140,129.288 387.672 C 129.761 387.199,129.351 387.015,128.146 387.160 C 127.896 387.190,127.581 386.929,127.447 386.580 C 127.285 386.156,126.937 386.029,126.402 386.199 C 125.941 386.346,125.600 386.272,125.600 386.027 C 125.600 385.792,125.240 385.600,124.800 385.600 C 124.360 385.600,124.000 385.780,124.000 386.000 M130.011 387.985 C 129.493 388.312,129.493 388.380,130.011 388.550 C 130.335 388.656,131.692 389.115,133.027 389.571 C 135.924 390.561,136.000 390.567,136.000 389.800 C 136.000 389.403,135.603 389.200,134.824 389.200 C 134.177 389.200,133.546 389.037,133.423 388.838 C 133.300 388.638,132.839 388.569,132.400 388.684 C 131.844 388.830,131.600 388.696,131.600 388.247 C 131.600 387.529,130.911 387.415,130.011 387.985 M136.400 390.400 C 136.400 390.620,136.535 390.814,136.700 390.831 C 136.865 390.847,137.270 390.938,137.600 391.033 C 139.461 391.565,140.800 391.654,140.800 391.245 C 140.800 391.000,140.260 390.800,139.600 390.800 C 138.940 390.800,138.400 390.620,138.400 390.400 C 138.400 390.180,137.950 390.000,137.400 390.000 C 136.850 390.000,136.400 390.180,136.400 390.400 M141.400 392.000 C 141.536 392.220,142.087 392.400,142.624 392.400 C 143.161 392.400,143.600 392.220,143.600 392.000 C 143.600 391.780,143.049 391.600,142.376 391.600 C 141.663 391.600,141.256 391.767,141.400 392.000 " stroke="none" fill="#abd298" fill-rule="evenodd"></path></g></svg>