<?xml version="1.0" encoding="UTF-8" standalone="no"?>
<svg
   width="64"
   height="64"
   viewBox="0 0 24 24"
   fill="none"
   stroke="#4256AD"
   stroke-width="2"
   stroke-linecap="round"
   stroke-linejoin="round"
   class="feather feather-zap"
   version="1.1"
   id="svg4"
   sodipodi:docname="zap.svg"
   inkscape:version="1.1.1 (3bf5ae0d25, 2021-09-20)"
   xmlns:inkscape="http://www.inkscape.org/namespaces/inkscape"
   xmlns:sodipodi="http://sodipodi.sourceforge.net/DTD/sodipodi-0.dtd"
   xmlns="http://www.w3.org/2000/svg"
   xmlns:svg="http://www.w3.org/2000/svg">
  <defs
     id="defs8" />
  <sodipodi:namedview
     id="namedview6"
     pagecolor="#ffffff"
     bordercolor="#666666"
     borderopacity="1.0"
     inkscape:pageshadow="2"
     inkscape:pageopacity="0.0"
     inkscape:pagecheckerboard="0"
     showgrid="false"
     inkscape:zoom="12.53125"
     inkscape:cx="32.0399"
     inkscape:cy="6.3441397"
     inkscape:window-width="1920"
     inkscape:window-height="991"
     inkscape:window-x="-9"
     inkscape:window-y="-9"
     inkscape:window-maximized="1"
     inkscape:current-layer="svg4" />
  <polygon
     points="13 2 3 14 12 14 11 22 21 10 12 10 13 2"
     id="polygon2"
     style="stroke:#5c6fff;stroke-opacity:1" />
  <path
     style="stroke:#5c6fff;stroke-width:0.75;stroke-opacity:1"
     id="path1398"
     d="m 12.690462,8.4731494 c -0.321099,0.1676981 -0.0011,0.00403 -0.390951,0.1905581 -0.119938,0.057392 -0.237663,0.1193996 -0.358328,0.1752458 -0.08508,0.039379 -0.733103,0.318984 -0.797192,0.347571 -0.145509,0.064903 -0.289787,0.1325313 -0.434681,0.1987968 -0.524013,0.2500875 -0.268268,0.124488 -0.7675417,0.3761719 0,0 -3.6627938,2.94845 -3.6627938,2.94845 v 0 c 0.50562,-0.289713 0.2500886,-0.151811 0.766464,-0.41395 0.3239711,-0.149208 0.3477004,-0.171889 0.6717424,-0.279054 0.3041396,-0.100583 0.1853928,-0.05949 0.4351721,-0.102103 0.1280003,-0.02184 0.064533,-0.03182 0.1457666,-0.01022 0,0 4.3923424,-3.4314657 4.3923424,-3.4314666 z" />
  <path
     style="stroke:#5c6fff;stroke-width:0.75;stroke-opacity:1"
     id="path1400"
     d="M 9.858288,9.4281131 C 8.2460063,10.345403 6.6254618,11.24832 5.0214427,12.179983 c -0.03693,0.02145 -0.046967,0.07207 -0.077124,0.102313 -0.1483571,0.148773 -0.2882178,0.239042 -0.4596645,0.364259 0,0 4.5941145,-1.820354 4.5941145,-1.820354 v 0 c 0.2488943,-0.181916 0.3005625,-0.22868 0.5836298,-0.392858 0.1180774,-0.06849 0.4797095,-0.260693 0.3610635,-0.193198 -1.5349785,0.873207 -3.073446,1.740266 -4.6101686,2.6104 0,0 4.4449942,-3.4224319 4.4449946,-3.4224319 z" />
  <path
     style="stroke:#5c6fff;stroke-width:0.75;stroke-opacity:1"
     id="path1402"
     d="m 8.9430694,11.073316 c -0.00756,-0.02541 -0.028954,-0.05047 -0.022676,-0.07622 0.010946,-0.04491 0.044475,-0.0812 0.070384,-0.119479 0.093653,-0.138366 0.2388722,-0.316225 0.3375276,-0.44199 C 9.6881959,9.9768401 9.4699283,10.247223 9.8766836,9.756204 10.411085,9.131061 10.988883,8.5453571 11.534865,7.9306777 c 0.09238,-0.1283265 0.198534,-0.2450733 0.296606,-0.3688278 0,0 -4.9823349,2.1921135 -4.9823349,2.1921135 v 0 c -0.037211,0.086545 -0.067175,0.1756976 -0.1086487,0.2604456 -0.040921,0.09588 -0.084541,0.20219 -0.132357,0.293858 C 6.3778039,10.749822 6.0640575,11.137324 5.7233235,11.498366 5.59389,11.628474 5.4677081,11.7619 5.335023,11.888691 c -0.2081415,0.198897 -0.5424645,0.492107 -0.7706797,0.678874 -0.092328,0.07556 -0.477573,0.378078 -0.600993,0.453509 -0.071872,0.04392 -0.1519174,0.07281 -0.2278763,0.109216 0,0 5.2075958,-2.056974 5.2075954,-2.056974 z" />
  <path
     style="stroke:#5c6fff;stroke-width:0.75;stroke-opacity:1"
     id="path1404"
     d="m 7.5274714,8.4360656 c 0.012289,0.061021 0.026816,0.1106265 0.010358,0.1767585 -0.049055,0.1971341 -0.1543215,0.3507589 -0.2524661,0.5279093 0,0 4.3110887,-1.8599366 4.3110887,-1.8599366 v 0 c 0.113091,-0.125862 0.222834,-0.2548155 0.339275,-0.3775861 0.22651,-0.2388251 0.465907,-0.4727565 0.723273,-0.6785118 0,0 -5.1315289,2.2113667 -5.1315286,2.2113667 z" />
  <path
     style="stroke:#5c6fff;stroke-width:0.75;stroke-opacity:1"
     id="path1406"
     d="m 6.8081524,9.2727656 c 0.037693,0.060014 0.090723,0.1127907 0.1130797,0.1800409 0.03462,0.1041386 0.043112,0.2155222 0.054697,0.324651 0.015394,0.1449784 0.029869,0.2908545 0.026123,0.4365995 -0.00996,0.387445 -0.07698,0.643641 -0.1512517,1.022729 0,0 4.0496736,-1.9834821 4.0496736,-1.9834821 v 0 c 0.01979,-0.1637569 0.03061,-0.3288503 0.05938,-0.4912703 0.07919,-0.4470337 0.149556,-0.6551531 0.321609,-1.0779547 0.06022,-0.1479912 0.12239,-0.2958147 0.198563,-0.4362634 0.06458,-0.1190771 0.148325,-0.2267171 0.222487,-0.3400755 0,0 -4.8943559,2.3650256 -4.8943559,2.3650256 z" />
  <path
     style="stroke:#5c6fff;stroke-width:0.75;stroke-opacity:1"
     id="path1408"
     d="m 6.0334433,11.489936 c 0.010624,0.02373 0.026764,0.04569 0.031871,0.07117 0.00715,0.03567 0.00649,0.07275 0.00424,0.109059 -0.012727,0.205356 -0.026603,0.192461 -0.1022303,0.402992 0,0 4.604114,-2.1009466 4.604114,-2.1009466 v 0 c 0.1732,-0.3170858 0.10636,-0.2126723 0.309379,-0.5123558 0.04396,-0.064896 0.08558,-0.1316137 0.134127,-0.1931553 0.02975,-0.037704 0.06669,-0.069118 0.100037,-0.103677 0,0 -5.081534,2.3269107 -5.081534,2.3269107 z" />
  <path
     style="stroke:#5c6fff;stroke-width:0.75;stroke-opacity:1"
     id="path1410"
     d="m 6.1200814,10.652058 c 0.011149,0.112946 -0.1188709,0.300194 -0.1752792,0.382122 -0.061843,0.08982 -0.1842116,0.244416 -0.2520716,0.331537 -1.3492207,1.768185 0.8498055,-0.09665 4.8794174,-2.1110699 0.04495,-0.02247 -0.02536,-0.1002064 -0.01711,-0.1497735 0.02076,-0.1246815 0.138759,-0.3257059 0.193588,-0.429993 0.04109,-0.069534 0.08218,-0.139068 0.123265,-0.2086023 0,0 -4.7313303,2.1500437 -4.7313303,2.1500437 v 0 c -0.01869,0.05514 -0.03738,0.110277 -0.056069,0.165415 -0.086193,0.176621 -0.1291463,0.28706 -0.2574581,0.44579 -0.066092,0.08176 -0.3162904,0.2671 -0.2191977,0.226778 1.6714774,-0.694152 3.3051293,-1.4762457 4.9650131,-2.1976812 0.02869,-0.012469 -0.03351,0.068118 -0.06479,0.067898 -0.02338,-1.65e-4 0.01078,-0.045494 0.01617,-0.068241 0.09516,-0.1722109 0.194322,-0.3210832 0.318523,-0.4751707 0.05027,-0.062368 0.233272,-0.2725227 0.289439,-0.3468158 0.0299,-0.039549 0.05524,-0.082347 0.08286,-0.1235205 0,0 -5.0949684,2.3412842 -5.0949684,2.3412842 z" />
  <path
     style="stroke:#5c6fff;stroke-width:0.75;stroke-opacity:1"
     id="path1412"
     d="m 6.1985644,10.412006 c 0.013177,0.02885 0.036607,0.05497 0.039537,0.08655 0.01404,0.151464 -0.051322,0.245181 -0.094169,0.389034 -0.026846,0.09013 -0.041462,0.183689 -0.069818,0.273356 -0.067299,0.212814 -0.1727317,0.451418 -0.2583247,0.656159 -0.1790246,0.380602 -0.1268063,0.288046 -0.3298534,0.648166 -0.051689,0.09167 -0.1023004,0.184062 -0.1582324,0.27321 -0.1111308,0.177126 -0.2432501,0.33939 -0.3720693,0.503554 -0.025703,0.02916 -0.1039302,0.123256 -0.1430378,0.150406 -0.033817,0.02347 -0.076773,0.03067 -0.1121449,0.05173 -0.063101,0.03757 -0.051416,0.03348 -0.099307,0.09047 -0.039988,0.02832 -0.07201,0.06672 -0.1117732,0.09527 -0.035539,0.02552 -0.094468,0.04528 -0.1179233,0.08738 -0.049357,0.08859 -0.01248,0.144484 0.00889,0.240933 0.073449,0.129109 0.146394,0.316558 0.2969977,0.389277 0.073692,0.03558 0.3115598,-0.0085 0.3687405,-0.0168 0.449739,-0.0652 0.034657,-0.01379 0.5042828,-0.06803 0.078837,-0.0032 0.1576293,-0.0078 0.2365106,-0.0096 0.2344069,-0.0054 0.205815,0.0057 0.4439156,-0.0071 0.090397,-0.0049 0.1804928,-0.01432 0.2708141,-0.02043 0.2607469,-0.01764 0.330687,-0.01938 0.5947864,-0.0315 0.2685698,-0.007 0.536826,0.0081 0.8052656,0.0131 0.081318,0.0015 0.1626934,0.0062 0.2439735,0.0033 0.1601089,-0.0057 0.4568453,-0.0401 0.6105803,-0.05633 0.4002862,-0.02852 0.8006014,-0.06678 1.2024,-0.05887 0.1846905,0.0036 0.2554035,0.01242 0.4329175,0.02773 0.274491,0.01859 0.549348,0.03053 0.824451,0.03333 0.27805,-0.01375 0.537642,-0.116041 0.796929,-0.208152 0.120761,-0.04081 0.243794,-0.07439 0.368049,-0.102642 0.02868,-0.0065 0.05819,-0.0097 0.08629,-0.01844 0.04004,-0.01239 0.07837,-0.02976 0.11756,-0.04464 0.05438,-0.01504 0.108758,-0.03008 0.163138,-0.04511 0.363193,-0.05723 0.722815,0.02656 1.068984,0.131851 0.03236,0.01062 0.112879,0.03627 0.147138,0.05028 0.03117,0.01274 0.0623,0.03262 0.09766,0.02155 0.0019,0.0054 0.0074,0.01071 0.0057,0.01614 -0.0028,0.0087 -0.01397,0.01258 -0.01753,0.02097 -0.01259,0.02966 -0.02022,0.06118 -0.03033,0.09177 0,0 4.783215,-2.277623 4.783215,-2.277623 v 0 c 0.01872,-0.07425 0.0468,-0.146758 0.05617,-0.22276 0.0252,-0.20447 0.0046,-0.218611 -0.04696,-0.391992 -0.02406,-0.04404 -0.04376,-0.09076 -0.07217,-0.132121 -0.03804,-0.05538 -0.116176,-0.131573 -0.176326,-0.164292 -0.101395,-0.05515 -0.265934,-0.07196 -0.376766,-0.09087 -0.380577,-0.01458 -0.77082,-0.01144 -1.127625,-0.164273 -0.08781,-0.03294 -0.17618,-0.07735 -0.273534,-0.07485 -0.04345,0.0011 -0.08533,0.01669 -0.12769,0.02646 -0.152745,0.03522 -0.302613,0.08141 -0.453189,0.124628 -0.122647,0.0329 -0.247373,0.06383 -0.368159,0.103249 -0.152497,0.04977 -0.03703,0.02166 -0.189346,0.06739 -0.03576,0.01074 -0.07218,0.01919 -0.108264,0.02878 -0.09293,0.03203 -0.144151,0.05315 -0.242208,0.07222 -0.05098,0.0099 -0.102868,0.01441 -0.154229,0.02211 -0.198435,0.02976 -0.395997,0.06608 -0.596009,0.08438 -0.08616,0.01139 -0.172079,0.02484 -0.258488,0.03418 -0.501584,0.05422 -1.006509,0.05395 -1.509791,0.08003 -0.09184,6.75e-4 -0.423187,0.002 -0.520768,0.0069 -0.08679,0.0043 -0.173165,0.01504 -0.259886,0.02065 -0.282354,0.01828 -0.565549,0.02619 -0.848466,0.02418 -0.251526,-0.0099 -0.280082,-0.01005 -0.525682,-0.02364 -0.07648,-0.0042 -0.152794,-0.01193 -0.229364,-0.01382 -0.182539,-0.0045 -0.276599,0.0074 -0.4598069,0.013 -0.076873,0.0024 -0.1537984,0.0025 -0.2306974,0.0037 -0.1841058,-0.01455 -0.1831638,-0.0086 -0.3485122,-0.0408 -0.028807,-0.0056 -0.0566,-0.01607 -0.085591,-0.02062 -0.0069,-0.0011 -0.023104,-0.0026 -0.020591,0.0039 0.04533,0.117755 0.1527424,0.206283 0.1768557,0.334681 0.014224,0.03351 0.025335,0.06852 0.042672,0.100536 0.00559,0.01032 0.013466,0.02595 0.025125,0.02464 0.016035,-0.0018 0.025807,-0.01966 0.036701,-0.03156 0.015128,-0.01653 0.026246,-0.03639 0.040962,-0.05329 0.036056,-0.0414 0.079217,-0.07627 0.1135328,-0.119323 0.018832,-0.0166 0.039589,-0.03124 0.056499,-0.04979 0.092964,-0.101994 0.1098049,-0.219274 0.124236,-0.350173 0.017663,-0.132532 0.033139,-0.267084 0.060287,-0.398011 0.058382,-0.281547 0.152273,-0.553945 0.273794,-0.8144879 0.107295,-0.22515 0.21661,-0.4680015 0.344669,-0.6826316 0.06721,-0.1126436 0.145381,-0.2183767 0.217104,-0.3282015 0.05396,-0.082629 0.101512,-0.1696121 0.15994,-0.2491459 0.158223,-0.2153778 0.190683,-0.2304607 0.373484,-0.3978566 0,0 -5.0960755,2.2586555 -5.0960755,2.2586555 z" />
  <path
     style="stroke:#5c6fff;stroke-width:0.75;stroke-opacity:1"
     id="path1414"
     d="m 18.511267,10.485191 c -1.601642,0.92331 -3.209983,1.835096 -4.804927,2.76993 -0.02654,0.01555 -0.0341,0.0512 -0.05152,0.07655 -0.03268,0.04756 -0.06374,0.09632 -0.09877,0.142177 -0.05404,0.07076 -0.110295,0.139844 -0.168236,0.207437 -0.04244,0.04951 -0.470416,0.524423 -0.497342,0.554343 -0.25669,0.27164 -0.511638,0.544467 -0.707204,0.864926 -0.05643,0.09247 -0.103838,0.190162 -0.15546,0.285404 -0.06558,0.120994 -0.223942,0.415634 -0.290844,0.540016 -0.130487,0.248424 -0.274072,0.493486 -0.372655,0.757318 -0.03051,0.08165 -0.05306,0.166056 -0.08002,0.248946 -0.06289,0.27356 -0.183456,0.529276 -0.307015,0.779814 -0.0425,0.116785 -0.101262,0.241247 -0.101306,0.368703 -10e-6,0.03026 0.0065,0.06017 0.0097,0.09026 0,0 4.956907,-2.555162 4.956907,-2.555162 v 0 c 0.002,0.003 0.0037,0.01196 0.0059,0.0091 0.01028,-0.01352 0.02736,-0.191059 0.04409,-0.204882 0.05429,-0.263625 0.140534,-0.520199 0.24394,-0.768461 0.02399,-0.07182 0.06194,-0.179275 0.07988,-0.255039 0.04433,-0.187152 0.05441,-0.382911 0.128778,-0.562868 0.08603,-0.205749 0.101765,-0.261373 0.21929,-0.46168 0.09314,-0.158749 0.219172,-0.333666 0.328294,-0.481828 0.05721,-0.07768 0.113686,-0.156015 0.174381,-0.23101 0.07053,-0.08715 0.146065,-0.170119 0.219097,-0.255178 0.09545,-0.09352 0.187281,-0.190886 0.286347,-0.280568 0.215071,-0.194699 0.443395,-0.374354 0.686153,-0.533429 0.102487,-0.06716 0.209426,-0.127431 0.31695,-0.186186 0.07438,-0.04064 0.301694,-0.154358 0.228386,-0.111807 -1.546615,0.897701 -3.09922,1.785042 -4.648831,2.677563 0,0 4.355972,-3.484366 4.355972,-3.484366 z" />
  <path
     style="stroke:#5c6fff;stroke-width:0.75;stroke-opacity:1"
     id="path1420"
     d="m 12.693418,15.27342 c 0.05762,0.09873 0.03963,0.199846 0.03106,0.308769 -0.0052,0.06639 -0.01042,0.132777 -0.0157,0.19916 -0.02621,0.329433 -0.0033,0.165205 -0.073,0.501875 0,0 4.579915,-2.208092 4.579915,-2.208092 v 0 c 0.01951,-0.08085 0.03198,-0.163733 0.05854,-0.242548 0.02966,-0.08801 0.06972,-0.172274 0.109531,-0.256178 0.107002,-0.225513 0.233263,-0.453013 0.425026,-0.617345 0,0 -5.115378,2.314359 -5.115378,2.314359 z" />
  <path
     style="stroke:#5c6fff;stroke-width:0.75;stroke-opacity:1"
     id="path1422"
     d="m 17.292231,14.534315 c -0.02317,-0.02827 -0.05135,-0.05308 -0.0695,-0.0848 -0.168359,-0.294214 -0.211424,-0.63175 -0.225484,-0.964861 -0.01261,-0.298799 0.0102,-0.668736 0.02333,-0.966658 0.01477,-0.149386 0.02954,-0.298772 0.04431,-0.448157 0,0 -4.203222,2.147373 -4.203222,2.147373 v 0 c 0.01778,0.128482 0.03555,0.256964 0.05332,0.385447 0.0028,0.149753 0.01531,0.299645 0.0083,0.449261 -0.03227,0.689807 -0.243866,1.358893 -0.63513,1.928856 0,0 5.004059,-2.446458 5.004059,-2.446458 z" />
  <path
     style="stroke:#5c6fff;stroke-width:0.75;stroke-opacity:1"
     id="path1424"
     d="m 17.217047,13.676231 c -0.0459,-0.04166 -0.106222,-0.07157 -0.137693,-0.124967 -0.04308,-0.07309 -0.059,-0.159538 -0.07864,-0.242076 -0.07442,-0.312777 -0.05311,-0.327534 -0.04753,-0.653924 0,0 -4.364101,2.216395 -4.364101,2.216395 v 0 c -0.0011,0.112989 0.0074,0.226468 -0.0031,0.338968 -0.0149,0.158919 -0.09149,0.540216 -0.151946,0.69719 -0.03769,0.09787 -0.09657,0.18619 -0.144853,0.279284 0,0 4.92786,-2.51087 4.92786,-2.51087 z" />
  <path
     style="stroke:#5c6fff;stroke-width:0.75;stroke-opacity:1"
     id="path1426"
     d="m 17.479111,13.19397 c -0.06796,-0.05592 -0.147496,-0.100175 -0.203874,-0.167752 -0.08483,-0.101684 -0.160174,-0.213555 -0.214862,-0.334161 -0.185116,-0.408245 -0.222591,-0.931149 -0.223658,-1.373438 -3.19e-4,-0.131715 0.01087,-0.263207 0.0163,-0.394811 0.01058,-0.107273 0.02116,-0.214545 0.03174,-0.321818 0.0099,-0.08451 0.02119,-0.168866 0.02968,-0.253527 0.01668,-0.166328 0.02871,-0.336933 -0.03641,-0.4961307 -0.01796,-0.043904 -0.04585,-0.083055 -0.06877,-0.1245818 -0.05133,-0.042898 -0.09454,-0.098012 -0.153989,-0.1286947 -0.104296,-0.053835 -0.20834,-0.03624 -0.316095,-0.018761 -0.130057,0.021101 -0.258262,0.05922 -0.386031,0.090837 -0.137382,0.028477 -0.273839,0.066026 -0.413797,0.080136 -0.03692,0.00371 -0.145803,0.00817 -0.183545,0.00989 -0.213137,0.012701 -0.426488,0.020494 -0.639901,0.012353 -0.07793,0.00251 -0.156079,-0.00972 -0.233858,-0.0096 -0.05664,8.89e-5 -0.112456,0.013234 -0.168143,0.021829 -0.08858,0.028335 -0.183482,0.011434 -0.27331,0.031204 -0.05345,0.011764 -0.104502,0.032636 -0.157262,0.047185 -0.141946,0.052376 -0.293374,0.055055 -0.441289,0.074933 -0.04791,0.00644 -0.09548,0.015232 -0.143214,0.022849 -0.335844,0.060488 -0.677182,0.044403 -1.016385,0.048882 -0.168708,0.01689 -0.339016,0.0083 -0.507684,0.02487 -0.11367,0.0112 -0.226801,0.02736 -0.340333,0.03988 -0.48769,0.07147 -0.980613,0.08703 -1.4722839,0.11007 -0.215487,0.0092 -0.4308427,0.0075 -0.6459397,-0.0072 0,0 -4.2964643,3.205474 -4.2964643,3.205474 v 0 c 0.2748158,-0.06879 0.5505664,-0.135508 0.8317305,-0.173431 0.4366579,-0.03272 0.8760728,-0.05444 1.3123976,-0.0055 0.090239,0.0046 0.180177,0.01547 0.2705138,0.01735 0.1877407,0.0039 0.373809,-0.03671 0.5607146,-0.04669 0.1629214,-0.02218 0.3282285,-0.04805 0.492597,-0.0562 0.05696,-0.0028 0.1140596,-4.88e-4 0.1710896,-4.13e-4 0.053288,9.9e-5 0.1066917,-0.0025 0.1598607,0.001 0.041107,0.0027 0.081533,0.01191 0.1222991,0.01787 0.033281,0.0064 0.066177,0.01531 0.099841,0.01924 0.1488968,0.01741 0.3104348,-0.004 0.460638,0.0079 0.051732,-0.0042 0.1044214,-0.0013 0.1552553,-0.01179 0.019695,-0.0041 0.037551,-0.0144 0.056357,-0.02152 0.054799,-0.02076 0.1057972,-0.0336 0.1654357,-0.02905 0.022267,-0.0028 0.1130351,-0.01404 0.133888,-0.01821 0.119836,-0.02395 0.02226,-0.01 0.144683,-0.04546 0.0093,-0.0027 0.191257,-0.04242 0.195253,-0.0433 0.03436,-0.007 0.06834,-0.01614 0.103077,-0.02088 0.09564,-0.01305 0.108125,-0.0051 0.203852,-0.0025 0.100822,0.0027 0.201789,0.0026 0.302627,0.0051 0.301054,-0.0082 -0.09768,0.0034 0.219711,-0.0084 0.163104,-0.0061 0.326567,-0.0028 0.486953,-0.03989 0.106039,-0.0211 0.152204,-0.02864 0.256359,-0.05582 0.0053,-0.0014 0.169837,-0.04629 0.186876,-0.06033 0.04718,-0.03888 0.01125,-0.121413 0.004,-0.159311 0.0078,-0.01518 0.0082,-0.03791 0.02348,-0.04553 0.03364,-0.01675 0.108066,0.04639 0.118075,0.05666 0.143108,0.146847 0.215069,0.34997 0.309767,0.526468 0.04227,0.10571 0.091,0.209061 0.126801,0.317132 0.141047,0.425728 0.232446,0.930432 0.172379,1.378629 -0.05542,0.413515 -0.12219,0.476746 -0.300455,0.810267 0,0 4.913333,-2.503468 4.913333,-2.503468 z" />
  <path
     style="stroke:#5c6fff;stroke-width:0.75;stroke-opacity:1"
     id="path1428"
     d="m 4.8750394,13.687327 c 0.053361,7.5e-4 0.1067403,0.0038 0.1600841,0.0023 0.1439152,-0.0042 0.3130155,-0.02661 0.4522376,-0.04201 0.115857,-0.01281 0.2316904,-0.02584 0.3475586,-0.03855 0.5793758,-0.06357 0.3075934,-0.03814 0.9112917,-0.08197 0.9571462,-0.02495 1.9145692,-0.0096 2.8718467,-0.0194 0.6633509,0.01303 0.5080969,-0.0018 1.1527249,0.05588 0.408821,0.03658 0.602273,0.05051 0.993162,0.133684 0.120213,0.02558 0.237899,0.06185 0.356849,0.09277 0,0 3.825805,-2.716807 3.825805,-2.716807 v 0 c -0.408505,4.5e-5 -0.628106,0.0055 -1.042434,-0.01796 -0.186522,-0.01057 -0.372486,-0.02938 -0.558684,-0.04465 -0.707139,-0.05796 -0.39991,-0.0252 -1.082225,-0.118474 C 13.104077,10.86973 12.945612,10.84149 12.78572,10.82491 12.42466,10.78749 12.228817,10.79438 11.867155,10.78847 11.43284,10.78137 10.998346,10.77761 10.564338,10.75878 10.202367,10.71625 10.245174,10.73222 9.920361,10.65732 9.7498024,10.61799 9.7284986,10.61051 9.5820525,10.556535 c -0.028028,-0.01033 -0.057063,-0.0186 -0.083536,-0.03244 -0.00628,-0.0033 -0.00803,-0.01168 -0.012045,-0.01751 0,0 -4.6114339,3.180785 -4.6114339,3.180785 z" />
  <path
     style="stroke:#5c6fff;stroke-width:0.75;stroke-opacity:1"
     id="path1430"
     d="m 17.990276,10.988528 c -0.400387,0.02344 -0.800281,0.0512 -1.200821,0.07285 -0.239865,0.01297 -0.479525,0.03119 -0.719644,0.03795 -0.633148,0.01781 -0.866972,-2.08e-4 -1.496094,-0.02228 -0.615091,-0.03687 -1.233035,-0.06882 -1.842507,-0.165679 -0.134429,-0.02136 -0.267004,-0.0531 -0.400506,-0.07965 0,0 -3.6895831,2.665769 -3.6895831,2.665769 v 0 c 0.193488,-0.01791 0.3865845,-0.04072 0.580464,-0.05372 0.6817444,-0.04571 1.3664321,-0.04349 2.0481771,4.5e-4 0.471236,0.04756 0.790811,0.05817 1.243685,0.182268 0.144701,0.03965 0.283402,0.09931 0.421338,0.158341 0.146097,0.06252 0.311833,0.141155 0.425738,0.260336 0.01927,0.02016 0.02495,0.04989 0.03743,0.07484 0,0 4.592323,-3.131464 4.592323,-3.131464 z" />
  <path
     style="stroke:#5c6fff;stroke-width:0.75;stroke-opacity:1"
     id="path1432"
     d="m 12.450624,10.514022 c -0.380274,0.03096 -0.758672,0.09102 -1.141046,0.09323 -0.26105,0.0015 -0.381539,-0.01971 -0.632314,-0.0492 0,0 -4.0291162,2.89596 -4.0291162,2.89596 v 0 c 0.3299295,-0.0021 0.6001507,-0.01483 0.9205672,0.08421 0.1104112,0.03412 0.2334375,0.08229 0.3108881,0.172844 0,0 4.5710209,-3.19704 4.5710209,-3.19704 z" />
  <path
     style="stroke:#5c6fff;stroke-width:0.75;stroke-opacity:1"
     id="path1434"
     d="m 6.7482338,13.772652 c 0.5367581,-0.154212 1.0993683,-0.218454 1.6575975,-0.199158 0.1448336,0.005 0.2885388,0.02744 0.4328081,0.04115 0,0 3.7831316,-2.707266 3.7831316,-2.707266 v 0 c -0.385828,-0.01938 -0.494356,-0.0046 -0.861212,-0.09745 -0.207477,-0.05251 -0.394985,-0.12868 -0.544517,-0.283329 0,0 -4.4678083,3.246053 -4.4678082,3.246053 z" />
  <path
     style="stroke:#5c6fff;stroke-width:0.75;stroke-opacity:1"
     id="path1436"
     d="m 7.3790794,13.872011 c 0.4751576,-0.15342 0.9673278,-0.238944 1.4633883,-0.289107 0.5150494,-0.05208 0.9101453,-0.06974 1.4254493,-0.04506 0.198187,0.0095 0.395142,0.03654 0.592713,0.05482 0,0 3.444548,-2.476428 3.444548,-2.476428 v 0 c -0.219612,-0.0026 -0.439496,0.0035 -0.658837,-0.0077 -0.423838,-0.02168 -0.74072,-0.06018 -1.146457,-0.164209 -0.228804,-0.05866 -0.391126,-0.103432 -0.566257,-0.25048 -0.02704,-0.0227 -0.04024,-0.05802 -0.06036,-0.08703 0,0 -4.4941886,3.26522 -4.4941886,3.26522 z" />
  <path
     style="stroke:#5c6fff;stroke-width:0.75;stroke-opacity:1"
     id="path1438"
     d="m 10.776797,14.086279 c 0.255345,-0.07946 0.335901,-0.113635 0.641264,-0.150283 0.129871,-0.01558 0.261369,-0.01113 0.392054,-0.01669 0,0 3.974907,-2.852555 3.974907,-2.852555 v 0 c -0.0963,-0.01886 -0.197366,-0.0212 -0.288893,-0.05658 -0.119321,-0.04612 -0.150089,-0.109531 -0.211954,-0.198684 0,0 -4.507378,3.274802 -4.507378,3.274802 z" />
  <path
     style="stroke:#5c6fff;stroke-width:0.75;stroke-opacity:1"
     id="path1440"
     d="m 14.350421,11.129388 c -0.191951,0.05986 -0.396083,0.07421 -0.594788,0.04034 -0.05698,-0.0097 -0.111238,-0.03148 -0.166857,-0.04723 0,0 -4.318854,2.952981 -4.318854,2.952981 v 0 c 0.2047073,0.06201 0.4278731,0.112743 0.5715218,0.284231 0,0 4.5089772,-3.230324 4.5089772,-3.230324 z" />
  <path
     style="stroke:#5c6fff;stroke-width:0.75;stroke-opacity:1"
     id="path1442"
     d="m 15.105963,11.037939 c -0.08092,0.02349 -0.159276,0.059 -0.242749,0.07047 -0.292667,0.04021 -0.874293,0.03814 -1.143735,0.03136 -0.410759,-0.01034 -0.985018,-0.04796 -1.393687,-0.09227 -0.203941,-0.02211 -0.406553,-0.05512 -0.609829,-0.08268 -0.494663,-0.06057 -0.967021,-0.250096 -1.466072,-0.280256 -0.180238,-0.01089 -0.3088101,0.0019 -0.4860284,0.01268 -0.1785877,0.01999 -0.3560276,0.04857 -0.5334889,0.07651 -0.1085782,0.0171 -0.2029395,0.03254 -0.312522,0.0304 0,0 -4.3245442,3.291768 -4.3245442,3.291768 v 0 c 0.04071,-0.01569 0.08056,-0.03383 0.1221319,-0.04707 0.013748,-0.0044 0.329781,-0.08697 0.3306187,-0.0872 0.219015,-0.06078 0.4365874,-0.127148 0.654126,-0.192932 0.2115139,-0.06337 0.3599089,-0.111596 0.5780408,-0.160544 0.6508162,-0.14604 1.3202373,-0.198957 1.9862572,-0.18792 0.554988,0.03681 0.7048136,0.02089 1.239321,0.15531 0.2721589,0.06845 0.5925129,0.171095 0.8194199,0.353442 0.06274,0.05042 0.108105,0.120848 0.14815,0.190664 0.02645,0.04611 0.03224,0.101294 0.04836,0.151941 0,0 4.58623,-3.23367 4.58623,-3.23367 z" />
  <path
     style="stroke:#5c6fff;stroke-width:0.75;stroke-opacity:1"
     id="path1444"
     d="m 7.7856874,8.1811504 c 0.00135,0.010721 0.00274,0.021443 0.0041,0.032164 0,0 5.0632106,-2.2907561 5.0632106,-2.2907561 v 0 c 0.01602,-0.018589 0.03204,-0.037178 0.04807,-0.055766 0,0 -5.1153772,2.3143583 -5.1153772,2.3143583 z" />
  <circle
     id="path1446"
     style="fill:#000000;stroke:#5c6fff;stroke-width:0.75"
     cx="10.713217"
     cy="6.7032423"
     r="0.0056494572" />
  <circle
     id="path1448"
     style="fill:#000000;stroke:#5c6fff;stroke-width:0.75"
     cx="10.713217"
     cy="6.7032423"
     r="0.0056494572" />
  <circle
     id="path1450"
     style="fill:#000000;stroke:#5c6fff;stroke-width:0.75"
     cx="10.743142"
     cy="6.4638405"
     r="0.0056494572" />
  <circle
     id="path1452"
     style="fill:#000000;stroke:#5c6fff;stroke-width:0.75"
     cx="10.743142"
     cy="6.4638405"
     r="0.0056494572" />
  <path
     style="stroke:#5c6fff;stroke-width:0.75;stroke-opacity:1"
     id="path1456"
     d="m 10.297626,6.3884321 c -0.006,0.2020613 -0.05982,0.3988256 -0.112827,0.5926759 -0.01003,0.030889 -0.02277,0.061025 -0.03008,0.092666 -0.004,0.017295 -0.01956,0.060927 -0.0036,0.053126 0.434258,-0.2125013 0.8698,-0.4257132 1.281841,-0.6786162 0.03898,-0.023921 0.0243,-0.088208 0.03839,-0.1317165 0.05608,-0.1731753 0.07102,-0.2008335 0.141117,-0.3742087 0.04489,-0.099424 0.109648,-0.2449185 0.158202,-0.3449381 0.02068,-0.042592 0.03939,-0.086401 0.06445,-0.1265719 0.01523,-0.024416 0.08142,-0.078819 0.05566,-0.065987 -1.220133,0.6079065 -1.030368,0.2327764 -1.251931,0.7044277 -0.03912,0.1944994 -0.07848,0.3937448 -0.153062,0.5786363 -0.01765,0.043761 -0.109632,0.1438429 -0.06635,0.1250486 1.232299,-0.535104 1.143418,-0.1840432 1.244061,-0.7091299 0.03628,-0.3662148 0.137056,-0.7210188 0.208731,-1.0806588 -0.425548,0.2108662 -0.874764,0.3795206 -1.276643,0.6325987 -0.05175,0.032591 -0.0094,0.122028 -0.01787,0.1826033 -0.01335,0.095966 -0.03103,0.191283 -0.04742,0.2867767 -0.07112,0.4143398 -0.153919,0.8258929 -0.23839,1.2376774 -0.02869,0.1304445 -0.05739,0.2608886 -0.08608,0.3913331 0,0 1.074123,-0.5217247 1.074123,-0.5217247 v 0 c 0.02087,-0.1261654 0.04174,-0.2523304 0.0626,-0.3784954 0.08699,-0.4260979 0.176814,-0.8492543 0.30908,-1.2642109 0.03295,-0.1033717 0.06566,-0.207228 0.108979,-0.306702 0.02841,-0.065244 0.173142,-0.2074819 0.105414,-0.1856434 -0.424061,0.1367378 -0.813632,0.3634568 -1.220448,0.5451852 0.0044,0.018967 0.01376,0.037421 0.01335,0.056898 -0.0011,0.05237 -0.04114,0.3031898 -0.0471,0.3373013 -0.03851,0.220281 -0.08663,0.4394812 -0.164124,0.6497711 -0.160948,0.5821969 -0.126181,0.3039649 1.191039,-0.4410776 0.03353,-0.018967 0.01296,-0.076029 0.02239,-0.1133809 0.03002,-0.1188802 0.08669,-0.2981981 0.124972,-0.4120095 0.02218,-0.065956 0.04642,-0.1312046 0.06962,-0.1968071 0.0941,-0.6231889 0.08779,-0.2606269 -1.220318,0.4409681 -0.01991,0.01068 -0.01198,0.043603 -0.0194,0.064946 -0.02309,0.066482 -0.08221,0.2159434 -0.105444,0.273342 -0.02463,0.060853 -0.05011,0.1213522 -0.07517,0.1820284 -0.05746,0.1333477 -0.108734,0.2585501 -0.174922,0.3878388 -0.0248,0.048438 -0.131572,0.1603613 -0.0803,0.1421367 0.418162,-0.1486298 0.808157,-0.3670553 1.21458,-0.5452999 0.0058,-0.00255 -0.0061,0.011104 -0.0092,0.016657 0.0058,-0.029501 0.01162,-0.059006 0.01743,-0.088509 0.04816,-0.2153239 0.106506,-0.4285489 0.144799,-0.64593 0,0 -1.250133,0.6369746 -1.250133,0.6369746 z" />
  <path
     style="stroke:#5c6fff;stroke-width:0.75;stroke-opacity:1"
     id="path1458"
     d="m 12.37069,17.170303 c 0.0037,0.01621 0.0096,0.03208 0.011,0.04864 0.02156,0.255504 -0.0995,0.589235 -0.179977,0.826905 -0.108482,0.312177 -0.237835,0.61628 -0.366046,0.920655 -0.02709,0.06431 -0.05642,0.127744 -0.08059,0.193204 -0.01964,0.05318 -0.03379,0.108232 -0.05069,0.162347 -0.0077,0.06171 -0.03588,0.169262 0.0061,0.232006 0.108799,0.162744 0.32134,0.07802 0.451243,0.0018 0.438462,-0.257088 0.867457,-0.529991 1.301185,-0.794987 0.174872,-0.188092 0.240316,-0.244206 0.387644,-0.466568 0.200681,-0.30289 0.359816,-0.638987 0.489697,-0.977526 0.0375,-0.09775 0.06857,-0.197855 0.102854,-0.296783 0.04797,-0.199729 0.119217,-0.404664 0.111044,-0.613725 -0.0015,-0.03957 -7.88e-4,-0.08236 -0.01971,-0.117138 -0.01997,-0.03668 -0.05263,-0.102759 -0.09096,-0.08617 -0.449292,0.194516 -0.865298,0.45832 -1.297947,0.68748 -0.255425,0.420904 -0.420096,0.888977 -0.546904,1.362523 -0.01871,0.11531 -0.08051,0.336708 0.01853,0.440678 0.03208,0.03367 0.08037,0.08568 0.122692,0.06641 1.245223,-0.567047 1.053485,-0.316231 1.399297,-0.876679 0.03262,-0.06674 0.07119,-0.130877 0.09785,-0.200207 0.09249,-0.240507 0.156943,-0.615543 0.140813,-0.875189 -0.0029,-0.04707 -0.01437,-0.09322 -0.02155,-0.139833 -0.02303,-0.03266 -0.03533,-0.07662 -0.0691,-0.09799 -0.03863,-0.02445 -0.093,-0.05112 -0.133727,-0.03037 -1.162608,0.592418 -0.969095,0.390345 -1.36982,0.862118 0,0 1.22943,-0.510755 1.22943,-0.510755 v 0 c 0.433336,-0.383771 -0.002,0.01651 -0.939722,0.481123 -0.02852,0.01413 0.02103,-0.06483 0.04715,-0.08302 0.01434,-0.01 0.03344,0.01018 0.05016,0.01527 0.01062,0.03544 0.02595,0.06981 0.03187,0.106332 0.04208,0.260014 -0.02405,0.567141 -0.14419,0.798092 -0.03431,0.06595 -0.08129,0.124493 -0.121936,0.18674 -0.442637,0.417954 -0.158893,0.125757 0.918801,-0.425734 0.02077,-0.01063 -0.03013,0.04637 -0.05344,0.04521 -0.02103,-0.001 -0.0326,-0.0297 -0.03883,-0.04981 -0.0255,-0.08237 -0.0043,-0.193934 0.0033,-0.273089 0.0139,-0.06648 0.02447,-0.133752 0.0417,-0.199449 0.08465,-0.322637 0.231991,-0.701294 0.450994,-0.956775 0.04357,-0.05082 0.09951,-0.08958 0.149257,-0.134366 -0.369412,0.190227 -0.736229,0.385578 -1.108235,0.570681 -0.01584,0.0079 0.02232,-0.04726 0.03725,-0.03778 0.03327,0.02113 0.03529,0.20332 0.03524,0.206736 -0.0024,0.167971 -0.024,0.236063 -0.05643,0.409181 -0.02765,0.09219 -0.05031,0.18603 -0.08296,0.276571 -0.195523,0.542219 -0.511113,1.035942 -0.955976,1.406145 0.30233,-0.16535 0.602842,-0.334068 0.90699,-0.496049 0.04936,-0.02629 -0.09423,0.06031 -0.142344,0.08882 -0.02843,0.01685 -0.05862,0.03059 -0.0872,0.0472 -0.01308,0.0076 -0.02367,0.03116 -0.03763,0.02535 -0.0455,-0.01895 0.0097,-0.146042 -0.01327,-0.147275 0.01098,-0.04661 0.01914,-0.09398 0.03295,-0.139838 0.01869,-0.06205 0.04206,-0.122597 0.06443,-0.18341 0.114625,-0.311484 0.252545,-0.61381 0.363025,-0.926897 0.09146,-0.264492 0.18727,-0.533736 0.234939,-0.810582 0.01264,-0.0734 0.01144,-0.107518 0.01263,-0.174848 0,0 -1.240842,0.654582 -1.240842,0.654582 z" />
</svg>
